<svg xmlns:xlink="http://www.w3.org/1999/xlink" xmlns="http://www.w3.org/2000/svg" aria-hidden="true" width="24"  height="24" ><defs><symbol id="icon-instagram" viewBox="0 0 24 24" preserveAspectRatio="xMinYMin"><path d="M8.073 1.2A6.873 6.873 0 0 0 1.2 8.073v7.854A6.873 6.873 0 0 0 8.073 22.8h7.854a6.873 6.873 0 0 0 6.873-6.873V8.073A6.873 6.873 0 0 0 15.927 1.2H8.073ZM8 0h8a8 8 0 0 1 8 8v8a8 8 0 0 1-8 8H8a8 8 0 0 1-8-8V8a8 8 0 0 1 8-8Z"></path><path d="M12 18.1a6.1 6.1 0 1 1 0-12.2 6.1 6.1 0 0 1 0 12.2Zm0-1.2a4.9 4.9 0 1 0 0-9.8 4.9 4.9 0 0 0 0 9.8Z"></path><circle cx="18.8" cy="5.2" r="1.2"></circle></symbol></defs>
                            <use xlink:href="#icon-instagram" fill="#D6D6D6"></use>
                        </svg>