<svg xmlns:xlink="http://www.w3.org/1999/xlink" xmlns="http://www.w3.org/2000/svg" role="img"
    aria-labelledby="UvA-footerlogo" width="425" height="42">
    <defs>
        <symbol id="logo-uva-large-en" viewBox="0 0 425 42" preserveAspectRatio="xMinYMin">
            <title>logo-UvA-large-en </title>
            <path
                d="M55.519 4.033c0-2.237-1.361-2.237-2.919-2.237l-.14-.116V1.2c0-.311.198-.34.509-.34.736 0 2.55.143 3.881.143 1.414 0 2.857-.143 4.273-.143l.086.085v.735l-.141.116h-.338c-1.842 0-2.664.195-2.664 2.322v8.21c0 4.078.795 7.28 5.663 7.28 5.07 0 6.71-2.438 6.71-7.223V5.022c0-3.226 0-3.003-2.49-3.226l-.114-.228V1.03l.087-.17c.508 0 1.075.144 3.197.144 1.192 0 2.692-.143 3.599-.143l.112.17v.594l-.172.172c-2.062 0-2.802.113-2.802 1.527V13.43c0 5.186-3.028 7.816-8.182 7.816-4.106 0-8.155-1.441-8.155-6.172V4.033Z"></path>
            <path
                d="M76.447 8.447c0-.426-.02-.532-.106-.7-.189-.364-1.124-1.125-1.483-1.148l-1.126-.063c-.085 0-.107-.212-.107-.38 0-.11 0-.277.107-.277.659 0 1.166-.043 1.695-.043.978 0 2.527.085 2.908.129l6.43 7.764a48.73 48.73 0 0 0 3.46 3.821h.083V8.214c0-1.402-.509-1.615-1.19-1.634l-.91-.044c-.086 0-.13-.212-.13-.358 0-.132.064-.342.193-.342.466 0 1.57.107 2.61.107.955 0 1.974-.107 2.567-.107.107 0 .128.085.128.171v.402c0 .104-.045.127-.19.127h-.552c-1.463 0-1.463.744-1.463 2.547V21.37h-.511L77.401 8.278v9.74c0 1.822.257 2.032 2.08 2.1.084 0 .148.19.148.357 0 .171-.02.342-.084.342-.404 0-1.76-.107-2.65-.107-1.042 0-1.51.107-2.482.107-.13 0-.152-.149-.152-.424 0-.193.021-.276.278-.276.888 0 1.908-.21 1.908-1.295V8.447zm20.695 8.444c0 3.097.063 3.118 2.143 3.226l.107.15v.401c0 .127-.319.149-.51.149-.297 0-1.719-.107-2.588-.107-1.018 0-2.059.107-3.161.107-.084-.045-.105-.17-.105-.384.02-.273.063-.316.677-.316 1.465 0 1.528-.318 1.528-1.933V8.043c0-1.209-.36-1.507-2.142-1.507l-.063-.104-.042-.342c.02-.233.212-.255.339-.255.571 0 1.251.108 2.693.108 1.06 0 2.335-.108 3.182-.108l.106.152v.38l-.084.128-.573.04c-.848.064-1.507.152-1.507 1.127v9.23zm5.096-9.634c-.234-.57-1.08-.72-1.678-.72l-.126-.105v-.553l.234-.044c.891 0 2.186.107 2.654.107.974 0 1.928-.107 2.903-.107l.064.067-.064.594-.996.084c-.339.018-.72.147-.72.464 0 .17.106.447.19.638l2.44 6.369 1.381 3.156c.147.319.168.384.233.384.042 0 .103-.089.189-.337l3.035-8.045c.34-.91.594-1.698.572-1.952-.021-.36-.128-.55-.742-.61l-1.103-.11-.128-.065v-.655c.83 0 1.654.125 2.484.125.658 0 2.057-.125 2.206-.125l.169.085v.487l-.19.147-.66.044c-.425.018-.594.233-.889.976-2.016 4.857-2.504 6.387-4.116 10.482l-1.082 2.757c-.105.298-.147.317-.297.317-.193 0-.234-.063-.275-.148l-5.688-13.707zM118.837 8c0-1.378-1.04-1.528-2.271-1.528-.086 0-.086-.105-.086-.192v-.234c0-.188.362-.21 1.104-.21.85 0 1.804.107 2.696.107.846 0 1.697-.107 2.546-.107h4.476c.17 0 .19.193.19.424V8.85c0 .085-.042.169-.147.169-.17 0-.508.024-.531-.233l-.063-.656c-.13-1.357-1.063-1.593-2.25-1.593h-2.185c-1.19 0-1.57.257-1.57 1.87v3.838c0 .062.128.17.17.17l2.503-.085c1.272-.042 1.636-.447 1.953-1.571.042-.123.106-.169.337-.169.152 0 .259.022.259.129 0 .445-.128 1.42-.128 2.122 0 1.142.128 1.762.128 2.118 0 .13-.215.258-.342.258-.169 0-.319-.065-.36-.278-.106-.57-.106-.98-.211-1.272-.109-.317-.364-.467-1-.485l-3.012-.068c-.297 0-.297.11-.297.255v5.052c0 1.527 1.126 1.568 2.589 1.568h1.145c1.124 0 1.91-.02 2.442-.336.467-.28 1.123-1.574 1.354-2.102.278 0 .64.062.64.21 0 .067-.062.236-.107.34l-.594 2.143c-.17.574-.276.574-.553.574-2.29 0-4.54-.107-7.616-.107-.7 0-2.483.107-3.566.107-.063 0-.127-.215-.127-.342 0-.167.043-.358.127-.358 1.85-.085 2.357-.276 2.357-2.228V8zm15.899 4.65c.277.02.528.04.805.04 1.699 0 3.82-.593 3.82-3.097 0-1.87-1.274-3.08-3.14-3.08-1.443 0-1.485.344-1.485.978v5.158zm-1.91-4.522c0-1.06-.044-1.592-1.38-1.592h-.868c-.128 0-.147-.233-.147-.402 0-.105.062-.299.147-.299 1.228 0 2.483.067 3.712.067.974 0 1.93-.067 2.907-.067 2.164 0 4.286 1.444 4.286 3.672 0 1.93-1.762 3.225-3.416 3.48v.042c.827.193 1.696 1.742 1.91 2.08l2.332 3.566c.744 1.124 1.233 1.334 2.504 1.4l.128.125v.402c0 .193-.15.215-.233.215-.443 0-1.102-.063-1.422-.063-.508 0-1.019.063-1.528.063-.486 0-1.443-1.422-2.695-3.65-1.378-2.442-2.185-3.777-3.583-3.777-.172 0-.425 0-.744.04v5.204c0 .76 0 1.483 1.061 1.483.806 0 1.166 0 1.166.169 0 .403-.063.53-.381.53-1.102 0-2.016-.106-2.929-.106-.36 0-2.715.107-3.012.107-.128 0-.169-.277-.169-.446 0-.189.084-.232.511-.254 1.462-.067 1.843-.276 1.843-1.74V8.127zm15.476 4.964c-1.528-.911-2.145-1.762-2.145-3.415 0-2.65 2.166-4.136 5.028-4.136.808 0 1.953.277 2.673.593l.148 2.652v.106c0 .107-.21.15-.508.15-.277 0-.316-.128-.337-.341-.151-1.421-1.168-2.335-2.677-2.335-1.442 0-2.564 1.018-2.564 2.38 0 1.524.93 2.12 3.052 3.243 2.102 1.103 3.927 2.08 3.927 4.733 0 2.885-2.61 4.39-5.26 4.39-.872 0-2.315-.277-3.122-.612-.168-.089-.231-.361-.294-.826l-.256-1.998c0-.126.425-.126.55-.126.064 0 .128.041.17.188.489 1.615 1.59 2.548 3.291 2.548 1.484 0 2.905-1.294 2.905-2.736 0-1.382-.785-2.21-1.89-2.865l-2.691-1.593zm12.522 3.8c0 3.096.063 3.117 2.143 3.225l.108.15v.401c0 .127-.32.149-.513.149-.294 0-1.716-.107-2.587-.107-1.02 0-2.056.107-3.16.107-.086-.045-.106-.17-.106-.384.02-.273.062-.316.677-.316 1.467 0 1.529-.318 1.529-1.933V8.043c0-1.209-.36-1.507-2.144-1.507l-.062-.104-.043-.342c.021-.233.213-.255.34-.255.572 0 1.25.108 2.693.108 1.063 0 2.335-.108 3.186-.108l.105.152v.38l-.084.128-.577.04c-.847.064-1.505.152-1.505 1.127v9.23zm11.27 1.657c0 1.568 1.06 1.568 2.376 1.568l.129.106v.34c0 .253-.107.253-.45.253-.424 0-1.463-.105-2.947-.105-1.165 0-2.989.105-3.501.105-.043-.147-.085-.254-.085-.383 0-.063.022-.19.085-.232l.215-.084h.254c1.931 0 2.016-.657 2.016-2.42V7.641l-.063-.976h-2.844c-1.613 0-1.87 1.018-2.27 2.378-.044.126-.129.188-.256.188-.296 0-.491-.086-.491-.213 0-.36.257-2.331.257-4.009 0-.085.3-.085.593-.085.679.911.893.911 1.806.911h7.891c1.486 0 1.91-.445 2.441-1.102.147 0 .635 0 .635.191 0 .17-.423 1.91-.467 3.44 0 .231-.065.679-.168.679-.19 0-.68-.109-.68-.218l-.084-1.058c-.083-1.08-.594-1.102-1.462-1.102h-2.93V18.55zm13.064-4.478c0-.215-.02-.492-.254-.835l-4.787-6.473c-.128-.193-.32-.3-.813-.32l-.81-.045-.128-.063V5.78l.127-.064h.257c.363 0 2.65.106 3.053.106.536 0 1.392-.106 2.095-.106.47 0 .683 0 .683.13v.257c0 .21-.063.316-.127.316l-1.24.045c-.3 0-.492.126-.492.362 0 .086.127.3.344.575l3.054 4.255c.17.236.362.447.577.641.406-.387 2.288-2.972 3.206-4.316.342-.494.535-.9.535-1.069 0-.298-.173-.425-.794-.448l-1.068-.045c.024 0 0-.316 0-.404 0-.108.024-.235.13-.299.832.085 1.857.106 2.776.106.622 0 1.56-.106 1.837-.106l.13.085v.492l-.085.086-.791.04c-.684.045-1.538 1.496-1.945 2.052l-3.544 4.852v5.019c0 .449.019.836.063.963.17.51.725.793 1.517.793h.576l.192.084v.598l-.107.021h-.321c-.94 0-1.857-.11-2.8-.11-.958 0-1.944.11-2.902.11H183l-.17-.044v-.364c0-.125.042-.277.213-.295l1.003-.11c.62-.064 1.112-.277 1.112-1.344V14.07zm30.327-.662c0-3.564-2.436-7.19-6.253-7.19-3.924 0-5.812 3.075-5.812 6.656 0 3.629 2.205 7.382 6.15 7.382 3.903 0 5.915-3.2 5.915-6.848m-14.332.167c0-4.432 3.794-8.057 8.186-8.057 4.45 0 8.418 3.053 8.418 7.463 0 4.266-4.115 8.102-8.337 8.102-4.429 0-8.267-2.88-8.267-7.508m19.198-5.383c0-1.292-.21-1.57-1.46-1.57h-.361c-.38.024-.549-.042-.549-.171 0-.17 0-.531.235-.531h8.69c.72 0 1.443-.104 2.185-.104.126 0 .297.022.297.192l.086 2.393c0 .148.022.299.022.447 0 .085-.17.125-.384.125h-.317c-.044-.251-.085-.508-.147-.739l-.191-.658c-.232-.829-.848-.954-1.508-.954h-2.97c-1.57 0-1.718.485-1.718 2.036v3.732h3.142c1.821 0 2.267-.508 2.267-1.675.21-.047.425-.108.573-.108.085 0 .129.044.129.15 0 .166-.085.487-.085 2.035 0 .616.085 1.718.085 2.184 0 .191-.147.275-.383.275-.17 0-.233-.19-.319-.53-.147-.87-.571-1.633-2.374-1.633h-3.035v5.557c0 .827.111 1.273 1.192 1.358l1.101.085c.105 0 .146.129.146.273 0 .171 0 .425-.23.425-1.593 0-2.27-.104-3.267-.104-.87 0-2.438.104-3.009.104-.173 0-.173-.212-.173-.377 0-.13.022-.321.11-.321l.933-.063c1.12-.086 1.287-.34 1.287-1.59V8.193zm28.448 3.668-3.148-8.117h-.06l-2.692 8.117h5.9zm-6.274 1.109-1.247 4.028c-.229.74-.339 1.39-.339 1.847 0 .935 1.331 1.134 2.102 1.134.251 0 .311.168.311.54 0 .282-.032.399-.23.399-.65 0-2.723-.146-3.49-.146-.763 0-1.957.146-2.81.146-.566 0-.566-.089-.566-.457v-.314c0-.14.252-.197.935-.255 1.477-.14 1.678-.423 2.218-1.987l5.617-16.345c.565-.48 1.162-1.137 1.869-1.363l7.127 17.966c.48 1.192.993 1.787 2.64 1.787.31 0 .367.342.367.653 0 .315-.195.315-.537.315-.46 0-2.273-.146-3.38-.146-1.135 0-2.272.057-3.406.146-.424 0-.453-.089-.453-.485 0-.31.17-.454.569-.454.428 0 1.815-.087 1.815-.767 0-.227-.112-.682-.51-1.674l-1.817-4.568h-6.785zm29.821-7.097c.66 0 1.339.062 2.022.062.533 0 1.085-.062 1.617-.062.32 0 .383.083.383.15v.338c0 .149-.064.256-.151.256-.149 0-.38-.044-.638-.044-1.237 0-1.237.618-1.237 2.003 0 1.213.237 9.174.237 10.345 0 .594.299 1.278 1.214 1.278.851 0 .954.042.954.234 0 .256-.124.469-.188.469-1.13 0-2.021-.11-2.917-.11-.893 0-1.809.11-2.724.11-.15 0-.17-.086-.17-.213v-.214c0-.213.192-.276 1.17-.276.428 0 .809-.51.809-1.257 0-2.297-.083-7.258-.17-10.9-.086-.019-.064-.019-.064-.019-1.191 2.448-2.744 6.002-3.468 7.898l-2.006 5.258c-.016.062-.082.126-.19.126-.102 0-.19-.108-.253-.403a9.57 9.57 0 0 0-.534-1.555l-4.023-9.794c-.15-.362-.276-.617-.358-.617-.09 0-.09.425-.09.661 0 1.683-.253 8.11-.253 9.154 0 .915 0 1.448 1.874 1.448.127 0 .148.105.148.36 0 .085-.021.343-.107.343-.3 0-1.34-.11-2.49-.11-1.21 0-2.405.11-2.705.11-.063 0-.128-.066-.128-.173v-.318c0-.192.173-.212.428-.212 1.745 0 2-.533 2-2.386 0-1.043.358-8.877.358-9.643 0-1.128-.551-1.597-2.463-1.597-.066 0-.11-.104-.11-.234v-.275c0-.108.065-.19.174-.19.807 0 1.575.104 2.424.104.531 0 1.085-.105 1.619-.105.151 0 .3.341.402.617l4.6 11.005h.1l4.904-11.622zm7.699 7.279c-1.539-.916-2.156-1.77-2.156-3.425 0-2.664 2.17-4.152 5.045-4.152.81 0 1.96.274 2.685.595l.148 2.662v.105c0 .107-.214.148-.514.148-.276 0-.315-.126-.338-.338-.148-1.426-1.17-2.345-2.683-2.345-1.446 0-2.574 1.022-2.574 2.387 0 1.532.938 2.127 3.065 3.255 2.11 1.108 3.94 2.085 3.94 4.748 0 2.897-2.622 4.405-5.28 4.405-.873 0-2.323-.276-3.131-.617-.17-.085-.233-.361-.3-.83l-.254-2c0-.127.428-.127.554-.127.07 0 .13.04.17.19.49 1.617 1.6 2.554 3.301 2.554 1.492 0 2.915-1.299 2.915-2.744 0-1.385-.785-2.215-1.892-2.874l-2.701-1.597zm15.502 5.854c0 1.577 1.062 1.577 2.383 1.577l.13.105v.341c0 .257-.108.257-.45.257-.424 0-1.465-.108-2.956-.108-1.172 0-3.004.108-3.513.108-.045-.151-.085-.257-.085-.383 0-.066.022-.193.085-.236l.215-.084h.255c1.937 0 2.021-.662 2.021-2.427V8.065l-.063-.978h-2.852c-1.62 0-1.878 1.02-2.28 2.383-.04.129-.128.192-.254.192-.302 0-.488-.086-.488-.212 0-.363.252-2.342.252-4.025 0-.084.299-.084.598-.084.681.916.892.916 1.807.916h7.918c1.49 0 1.918-.448 2.45-1.108.152 0 .637 0 .637.192 0 .171-.425 1.915-.467 3.45 0 .231-.067.679-.17.679-.193 0-.68-.105-.68-.212l-.084-1.066c-.089-1.084-.597-1.105-1.471-1.105h-2.938v11.919zm8.936-10.964c0-1.381-1.045-1.533-2.278-1.533-.084 0-.084-.107-.084-.19v-.235c0-.192.362-.211 1.106-.211.849 0 1.809.105 2.705.105.85 0 1.701-.105 2.55-.105h4.496c.167 0 .19.19.19.424v2.598c0 .085-.045.17-.151.17-.17 0-.51.02-.532-.233l-.066-.662c-.126-1.362-1.062-1.597-2.252-1.597h-2.195c-1.19 0-1.574.256-1.574 1.873V12.3c0 .063.128.171.173.171l2.508-.085c1.276-.044 1.642-.446 1.96-1.577.041-.127.107-.171.343-.171.147 0 .25.025.25.13 0 .448-.124 1.427-.124 2.128 0 1.15.124 1.767.124 2.128 0 .129-.21.257-.339.257-.17 0-.318-.065-.361-.279-.107-.571-.107-.977-.21-1.274-.11-.32-.367-.47-1.004-.491l-3.022-.063c-.298 0-.298.105-.298.253v5.07c0 1.53 1.128 1.573 2.597 1.573h1.15c1.13 0 1.916-.022 2.448-.342.471-.275 1.128-1.572 1.36-2.105.28 0 .639.063.639.211 0 .065-.063.234-.105.341l-.596 2.15c-.17.577-.275.577-.554.577-2.299 0-4.556-.11-7.64-.11-.702 0-2.49.11-3.576.11-.066 0-.13-.213-.13-.343 0-.17.043-.36.13-.36 1.849-.087 2.362-.279 2.362-2.237v-9.92zm15.277 4.662c.276.022.533.045.808.045 1.7 0 3.832-.598 3.832-3.11 0-1.871-1.276-3.086-3.149-3.086-1.45 0-1.491.34-1.491.979v5.172zm-1.916-4.534c0-1.063-.044-1.597-1.386-1.597h-.874c-.125 0-.147-.232-.147-.403 0-.107.065-.297.147-.297 1.236 0 2.496.062 3.729.062.98 0 1.938-.062 2.915-.062 2.172 0 4.302 1.448 4.302 3.68 0 1.937-1.768 3.236-3.428 3.493v.041c.83.192 1.704 1.746 1.915 2.085l2.342 3.579c.743 1.13 1.233 1.342 2.513 1.405l.126.126v.407c0 .189-.149.213-.233.213-.45 0-1.11-.066-1.428-.066-.512 0-1.021.066-1.53.066-.492 0-1.45-1.428-2.705-3.662-1.384-2.45-2.195-3.791-3.6-3.791-.167 0-.425 0-.742.044v5.216c0 .765 0 1.49 1.066 1.49.804 0 1.17 0 1.17.167 0 .405-.062.536-.388.536-1.107 0-2.019-.109-2.936-.109-.36 0-2.72.109-3.021.109-.128 0-.17-.277-.17-.45 0-.19.083-.233.509-.254 1.468-.064 1.854-.277 1.854-1.747V8.17zm17.189 9.543c0 2.343 2.406 2.343 3.339 2.343 2.916 0 6.023-2.405 6.023-6.856 0-3.79-2.042-5.663-3.512-6.513-1.02-.447-2.363-.553-3.277-.553-1.743 0-2.573.126-2.573 1.49v10.09zm-1.92-9.495c0-.808-.167-1.638-.958-1.638-.254 0-.933.085-1.339.085-.087 0-.087-.319-.087-.425 0-.128 0-.192.364-.275 1.428-.3 4.83-.533 6.66-.533 1.174 0 2.28.106 3.324.38 2.893.79 5.597 3.366 5.597 7.282 0 5.278-4.409 7.665-8.453 7.665-2.022 0-3.087-.087-4.146-.087-1.067 0-2.13.063-3.196.087-.084 0-.105-.192-.105-.343 0-.149.105-.36.19-.36.683-.086 1.233-.128 1.62-.385.318-.213.529-.554.529-1.233V8.218zm22.05 5.893-2.365-6.088h-.043l-2.015 6.088h4.423zm-4.708.828-.933 3.024c-.173.552-.255 1.043-.255 1.384 0 .701 1 .852 1.576.852.188 0 .232.126.232.402 0 .214-.023.3-.17.3-.49 0-2.042-.108-2.619-.108-.575 0-1.468.109-2.106.109-.425 0-.425-.066-.425-.343v-.234c0-.106.192-.15.702-.191 1.106-.107 1.254-.32 1.66-1.49l4.213-12.261c.425-.36.874-.852 1.405-1.024l5.343 13.476c.365.893.748 1.34 1.981 1.34.236 0 .276.258.276.49 0 .237-.147.237-.401.237-.34 0-1.705-.11-2.535-.11-.853 0-1.705.044-2.557.11-.317 0-.338-.066-.338-.366 0-.232.127-.337.424-.337.32 0 1.364-.065 1.364-.577 0-.168-.085-.51-.384-1.255l-1.36-3.428h-5.093zm25.662-9.066c.661 0 1.343.062 2.023.062.53 0 1.087-.062 1.619-.062.318 0 .38.083.38.15v.338c0 .149-.062.256-.145.256-.15 0-.386-.044-.64-.044-1.233 0-1.233.618-1.233 2.003 0 1.213.232 9.174.232 10.345 0 .594.3 1.278 1.215 1.278.848 0 .958.042.958.234 0 .256-.128.469-.192.469-1.131 0-2.022-.11-2.918-.11-.893 0-1.808.11-2.726.11-.148 0-.169-.086-.169-.213v-.214c0-.213.191-.276 1.169-.276.427 0 .807-.51.807-1.257 0-2.297-.08-7.258-.165-10.9-.085-.019-.066-.019-.066-.019-1.193 2.448-2.746 6.002-3.468 7.898l-2 5.258a.2.2 0 0 1-.192.126c-.108 0-.191-.108-.257-.403a10.072 10.072 0 0 0-.533-1.555l-4.022-9.794c-.15-.362-.276-.617-.36-.617-.086 0-.086.425-.086.661 0 1.683-.259 8.11-.259 9.154 0 .915 0 1.448 1.874 1.448.13 0 .149.105.149.36 0 .085-.019.343-.107.343-.295 0-1.34-.11-2.49-.11-1.214 0-2.407.11-2.701.11-.064 0-.126-.066-.126-.173v-.318c0-.192.167-.212.42-.212 1.748 0 2.004-.533 2.004-2.386 0-1.043.362-8.877.362-9.643 0-1.128-.55-1.597-2.472-1.597-.06 0-.107-.104-.107-.234v-.275c0-.108.067-.19.173-.19.81 0 1.574.104 2.431.104.529 0 1.081-.105 1.614-.105.15 0 .298.341.406.617l4.596 11.005h.108l4.894-11.622zM0 42h42V0H0v42zM16.072 3.857 17.827 2.1 21 5.273 24.173 2.1l1.756 1.756-3.173 3.173 3.173 3.174-1.756 1.756L21 8.786l-3.173 3.173-1.756-1.756 3.173-3.174-3.172-3.172zm3.172 14.825-3.172-3.173 1.755-1.756L21 16.926l3.173-3.173 1.756 1.756-3.173 3.173 3.173 3.173-1.756 1.757L21 20.438l-3.173 3.173-1.756-1.756 3.173-3.173zm6.682 19.438-1.756 1.757-3.173-3.174-3.173 3.173-1.756-1.756 3.173-3.173-3.173-3.172 1.756-1.757 3.173 3.173 3.173-3.173 1.756 1.756-3.173 3.173 3.173 3.173zm1.228-9.036.005-3.825-1.723 1.617s-1.003 1.031-3.276 1.616c-2.27.582-3.994.477-5.027.268-1.032-.206-1.961-.482-2.547-.76-.586-.276-1.618-.794-2.546-2.242-.549-.855-.549-2.997-.549-2.997l.042-3.993-.303-6.752s1.023.044 1.72.047c.86.005 1.6-.188 1.62-.076.034.209.057 9.402.057 9.402s.101 1.963.584 2.962c.844 1.754 4.612 1.9 4.612 1.9s.585.069 1.894-.033c1.307-.1 3.86-.478 4.685-2.025 0 0 .587-.654.798-4.372.221-3.894-.3-7.75-.3-7.75l3.651-.167s-.247 2.753-.253 7.92c-.005 5.166.473 8.196.473 8.196l-3.617 1.064z"></path>
        </symbol>
    </defs>
    <title id="UvA-footerlogo">University of Amsterdam</title>
    <g fill="#FFFFFF">
        <title>logo-UvA-large-en </title>
        <path
            d="M55.519 4.033c0-2.237-1.361-2.237-2.919-2.237l-.14-.116V1.2c0-.311.198-.34.509-.34.736 0 2.55.143 3.881.143 1.414 0 2.857-.143 4.273-.143l.086.085v.735l-.141.116h-.338c-1.842 0-2.664.195-2.664 2.322v8.21c0 4.078.795 7.28 5.663 7.28 5.07 0 6.71-2.438 6.71-7.223V5.022c0-3.226 0-3.003-2.49-3.226l-.114-.228V1.03l.087-.17c.508 0 1.075.144 3.197.144 1.192 0 2.692-.143 3.599-.143l.112.17v.594l-.172.172c-2.062 0-2.802.113-2.802 1.527V13.43c0 5.186-3.028 7.816-8.182 7.816-4.106 0-8.155-1.441-8.155-6.172V4.033Z"></path>
        <path
            d="M76.447 8.447c0-.426-.02-.532-.106-.7-.189-.364-1.124-1.125-1.483-1.148l-1.126-.063c-.085 0-.107-.212-.107-.38 0-.11 0-.277.107-.277.659 0 1.166-.043 1.695-.043.978 0 2.527.085 2.908.129l6.43 7.764a48.73 48.73 0 0 0 3.46 3.821h.083V8.214c0-1.402-.509-1.615-1.19-1.634l-.91-.044c-.086 0-.13-.212-.13-.358 0-.132.064-.342.193-.342.466 0 1.57.107 2.61.107.955 0 1.974-.107 2.567-.107.107 0 .128.085.128.171v.402c0 .104-.045.127-.19.127h-.552c-1.463 0-1.463.744-1.463 2.547V21.37h-.511L77.401 8.278v9.74c0 1.822.257 2.032 2.08 2.1.084 0 .148.19.148.357 0 .171-.02.342-.084.342-.404 0-1.76-.107-2.65-.107-1.042 0-1.51.107-2.482.107-.13 0-.152-.149-.152-.424 0-.193.021-.276.278-.276.888 0 1.908-.21 1.908-1.295V8.447zm20.695 8.444c0 3.097.063 3.118 2.143 3.226l.107.15v.401c0 .127-.319.149-.51.149-.297 0-1.719-.107-2.588-.107-1.018 0-2.059.107-3.161.107-.084-.045-.105-.17-.105-.384.02-.273.063-.316.677-.316 1.465 0 1.528-.318 1.528-1.933V8.043c0-1.209-.36-1.507-2.142-1.507l-.063-.104-.042-.342c.02-.233.212-.255.339-.255.571 0 1.251.108 2.693.108 1.06 0 2.335-.108 3.182-.108l.106.152v.38l-.084.128-.573.04c-.848.064-1.507.152-1.507 1.127v9.23zm5.096-9.634c-.234-.57-1.08-.72-1.678-.72l-.126-.105v-.553l.234-.044c.891 0 2.186.107 2.654.107.974 0 1.928-.107 2.903-.107l.064.067-.064.594-.996.084c-.339.018-.72.147-.72.464 0 .17.106.447.19.638l2.44 6.369 1.381 3.156c.147.319.168.384.233.384.042 0 .103-.089.189-.337l3.035-8.045c.34-.91.594-1.698.572-1.952-.021-.36-.128-.55-.742-.61l-1.103-.11-.128-.065v-.655c.83 0 1.654.125 2.484.125.658 0 2.057-.125 2.206-.125l.169.085v.487l-.19.147-.66.044c-.425.018-.594.233-.889.976-2.016 4.857-2.504 6.387-4.116 10.482l-1.082 2.757c-.105.298-.147.317-.297.317-.193 0-.234-.063-.275-.148l-5.688-13.707zM118.837 8c0-1.378-1.04-1.528-2.271-1.528-.086 0-.086-.105-.086-.192v-.234c0-.188.362-.21 1.104-.21.85 0 1.804.107 2.696.107.846 0 1.697-.107 2.546-.107h4.476c.17 0 .19.193.19.424V8.85c0 .085-.042.169-.147.169-.17 0-.508.024-.531-.233l-.063-.656c-.13-1.357-1.063-1.593-2.25-1.593h-2.185c-1.19 0-1.57.257-1.57 1.87v3.838c0 .062.128.17.17.17l2.503-.085c1.272-.042 1.636-.447 1.953-1.571.042-.123.106-.169.337-.169.152 0 .259.022.259.129 0 .445-.128 1.42-.128 2.122 0 1.142.128 1.762.128 2.118 0 .13-.215.258-.342.258-.169 0-.319-.065-.36-.278-.106-.57-.106-.98-.211-1.272-.109-.317-.364-.467-1-.485l-3.012-.068c-.297 0-.297.11-.297.255v5.052c0 1.527 1.126 1.568 2.589 1.568h1.145c1.124 0 1.91-.02 2.442-.336.467-.28 1.123-1.574 1.354-2.102.278 0 .64.062.64.21 0 .067-.062.236-.107.34l-.594 2.143c-.17.574-.276.574-.553.574-2.29 0-4.54-.107-7.616-.107-.7 0-2.483.107-3.566.107-.063 0-.127-.215-.127-.342 0-.167.043-.358.127-.358 1.85-.085 2.357-.276 2.357-2.228V8zm15.899 4.65c.277.02.528.04.805.04 1.699 0 3.82-.593 3.82-3.097 0-1.87-1.274-3.08-3.14-3.08-1.443 0-1.485.344-1.485.978v5.158zm-1.91-4.522c0-1.06-.044-1.592-1.38-1.592h-.868c-.128 0-.147-.233-.147-.402 0-.105.062-.299.147-.299 1.228 0 2.483.067 3.712.067.974 0 1.93-.067 2.907-.067 2.164 0 4.286 1.444 4.286 3.672 0 1.93-1.762 3.225-3.416 3.48v.042c.827.193 1.696 1.742 1.91 2.08l2.332 3.566c.744 1.124 1.233 1.334 2.504 1.4l.128.125v.402c0 .193-.15.215-.233.215-.443 0-1.102-.063-1.422-.063-.508 0-1.019.063-1.528.063-.486 0-1.443-1.422-2.695-3.65-1.378-2.442-2.185-3.777-3.583-3.777-.172 0-.425 0-.744.04v5.204c0 .76 0 1.483 1.061 1.483.806 0 1.166 0 1.166.169 0 .403-.063.53-.381.53-1.102 0-2.016-.106-2.929-.106-.36 0-2.715.107-3.012.107-.128 0-.169-.277-.169-.446 0-.189.084-.232.511-.254 1.462-.067 1.843-.276 1.843-1.74V8.127zm15.476 4.964c-1.528-.911-2.145-1.762-2.145-3.415 0-2.65 2.166-4.136 5.028-4.136.808 0 1.953.277 2.673.593l.148 2.652v.106c0 .107-.21.15-.508.15-.277 0-.316-.128-.337-.341-.151-1.421-1.168-2.335-2.677-2.335-1.442 0-2.564 1.018-2.564 2.38 0 1.524.93 2.12 3.052 3.243 2.102 1.103 3.927 2.08 3.927 4.733 0 2.885-2.61 4.39-5.26 4.39-.872 0-2.315-.277-3.122-.612-.168-.089-.231-.361-.294-.826l-.256-1.998c0-.126.425-.126.55-.126.064 0 .128.041.17.188.489 1.615 1.59 2.548 3.291 2.548 1.484 0 2.905-1.294 2.905-2.736 0-1.382-.785-2.21-1.89-2.865l-2.691-1.593zm12.522 3.8c0 3.096.063 3.117 2.143 3.225l.108.15v.401c0 .127-.32.149-.513.149-.294 0-1.716-.107-2.587-.107-1.02 0-2.056.107-3.16.107-.086-.045-.106-.17-.106-.384.02-.273.062-.316.677-.316 1.467 0 1.529-.318 1.529-1.933V8.043c0-1.209-.36-1.507-2.144-1.507l-.062-.104-.043-.342c.021-.233.213-.255.34-.255.572 0 1.25.108 2.693.108 1.063 0 2.335-.108 3.186-.108l.105.152v.38l-.084.128-.577.04c-.847.064-1.505.152-1.505 1.127v9.23zm11.27 1.657c0 1.568 1.06 1.568 2.376 1.568l.129.106v.34c0 .253-.107.253-.45.253-.424 0-1.463-.105-2.947-.105-1.165 0-2.989.105-3.501.105-.043-.147-.085-.254-.085-.383 0-.063.022-.19.085-.232l.215-.084h.254c1.931 0 2.016-.657 2.016-2.42V7.641l-.063-.976h-2.844c-1.613 0-1.87 1.018-2.27 2.378-.044.126-.129.188-.256.188-.296 0-.491-.086-.491-.213 0-.36.257-2.331.257-4.009 0-.085.3-.085.593-.085.679.911.893.911 1.806.911h7.891c1.486 0 1.91-.445 2.441-1.102.147 0 .635 0 .635.191 0 .17-.423 1.91-.467 3.44 0 .231-.065.679-.168.679-.19 0-.68-.109-.68-.218l-.084-1.058c-.083-1.08-.594-1.102-1.462-1.102h-2.93V18.55zm13.064-4.478c0-.215-.02-.492-.254-.835l-4.787-6.473c-.128-.193-.32-.3-.813-.32l-.81-.045-.128-.063V5.78l.127-.064h.257c.363 0 2.65.106 3.053.106.536 0 1.392-.106 2.095-.106.47 0 .683 0 .683.13v.257c0 .21-.063.316-.127.316l-1.24.045c-.3 0-.492.126-.492.362 0 .086.127.3.344.575l3.054 4.255c.17.236.362.447.577.641.406-.387 2.288-2.972 3.206-4.316.342-.494.535-.9.535-1.069 0-.298-.173-.425-.794-.448l-1.068-.045c.024 0 0-.316 0-.404 0-.108.024-.235.13-.299.832.085 1.857.106 2.776.106.622 0 1.56-.106 1.837-.106l.13.085v.492l-.085.086-.791.04c-.684.045-1.538 1.496-1.945 2.052l-3.544 4.852v5.019c0 .449.019.836.063.963.17.51.725.793 1.517.793h.576l.192.084v.598l-.107.021h-.321c-.94 0-1.857-.11-2.8-.11-.958 0-1.944.11-2.902.11H183l-.17-.044v-.364c0-.125.042-.277.213-.295l1.003-.11c.62-.064 1.112-.277 1.112-1.344V14.07zm30.327-.662c0-3.564-2.436-7.19-6.253-7.19-3.924 0-5.812 3.075-5.812 6.656 0 3.629 2.205 7.382 6.15 7.382 3.903 0 5.915-3.2 5.915-6.848m-14.332.167c0-4.432 3.794-8.057 8.186-8.057 4.45 0 8.418 3.053 8.418 7.463 0 4.266-4.115 8.102-8.337 8.102-4.429 0-8.267-2.88-8.267-7.508m19.198-5.383c0-1.292-.21-1.57-1.46-1.57h-.361c-.38.024-.549-.042-.549-.171 0-.17 0-.531.235-.531h8.69c.72 0 1.443-.104 2.185-.104.126 0 .297.022.297.192l.086 2.393c0 .148.022.299.022.447 0 .085-.17.125-.384.125h-.317c-.044-.251-.085-.508-.147-.739l-.191-.658c-.232-.829-.848-.954-1.508-.954h-2.97c-1.57 0-1.718.485-1.718 2.036v3.732h3.142c1.821 0 2.267-.508 2.267-1.675.21-.047.425-.108.573-.108.085 0 .129.044.129.15 0 .166-.085.487-.085 2.035 0 .616.085 1.718.085 2.184 0 .191-.147.275-.383.275-.17 0-.233-.19-.319-.53-.147-.87-.571-1.633-2.374-1.633h-3.035v5.557c0 .827.111 1.273 1.192 1.358l1.101.085c.105 0 .146.129.146.273 0 .171 0 .425-.23.425-1.593 0-2.27-.104-3.267-.104-.87 0-2.438.104-3.009.104-.173 0-.173-.212-.173-.377 0-.13.022-.321.11-.321l.933-.063c1.12-.086 1.287-.34 1.287-1.59V8.193zm28.448 3.668-3.148-8.117h-.06l-2.692 8.117h5.9zm-6.274 1.109-1.247 4.028c-.229.74-.339 1.39-.339 1.847 0 .935 1.331 1.134 2.102 1.134.251 0 .311.168.311.54 0 .282-.032.399-.23.399-.65 0-2.723-.146-3.49-.146-.763 0-1.957.146-2.81.146-.566 0-.566-.089-.566-.457v-.314c0-.14.252-.197.935-.255 1.477-.14 1.678-.423 2.218-1.987l5.617-16.345c.565-.48 1.162-1.137 1.869-1.363l7.127 17.966c.48 1.192.993 1.787 2.64 1.787.31 0 .367.342.367.653 0 .315-.195.315-.537.315-.46 0-2.273-.146-3.38-.146-1.135 0-2.272.057-3.406.146-.424 0-.453-.089-.453-.485 0-.31.17-.454.569-.454.428 0 1.815-.087 1.815-.767 0-.227-.112-.682-.51-1.674l-1.817-4.568h-6.785zm29.821-7.097c.66 0 1.339.062 2.022.062.533 0 1.085-.062 1.617-.062.32 0 .383.083.383.15v.338c0 .149-.064.256-.151.256-.149 0-.38-.044-.638-.044-1.237 0-1.237.618-1.237 2.003 0 1.213.237 9.174.237 10.345 0 .594.299 1.278 1.214 1.278.851 0 .954.042.954.234 0 .256-.124.469-.188.469-1.13 0-2.021-.11-2.917-.11-.893 0-1.809.11-2.724.11-.15 0-.17-.086-.17-.213v-.214c0-.213.192-.276 1.17-.276.428 0 .809-.51.809-1.257 0-2.297-.083-7.258-.17-10.9-.086-.019-.064-.019-.064-.019-1.191 2.448-2.744 6.002-3.468 7.898l-2.006 5.258c-.016.062-.082.126-.19.126-.102 0-.19-.108-.253-.403a9.57 9.57 0 0 0-.534-1.555l-4.023-9.794c-.15-.362-.276-.617-.358-.617-.09 0-.09.425-.09.661 0 1.683-.253 8.11-.253 9.154 0 .915 0 1.448 1.874 1.448.127 0 .148.105.148.36 0 .085-.021.343-.107.343-.3 0-1.34-.11-2.49-.11-1.21 0-2.405.11-2.705.11-.063 0-.128-.066-.128-.173v-.318c0-.192.173-.212.428-.212 1.745 0 2-.533 2-2.386 0-1.043.358-8.877.358-9.643 0-1.128-.551-1.597-2.463-1.597-.066 0-.11-.104-.11-.234v-.275c0-.108.065-.19.174-.19.807 0 1.575.104 2.424.104.531 0 1.085-.105 1.619-.105.151 0 .3.341.402.617l4.6 11.005h.1l4.904-11.622zm7.699 7.279c-1.539-.916-2.156-1.77-2.156-3.425 0-2.664 2.17-4.152 5.045-4.152.81 0 1.96.274 2.685.595l.148 2.662v.105c0 .107-.214.148-.514.148-.276 0-.315-.126-.338-.338-.148-1.426-1.17-2.345-2.683-2.345-1.446 0-2.574 1.022-2.574 2.387 0 1.532.938 2.127 3.065 3.255 2.11 1.108 3.94 2.085 3.94 4.748 0 2.897-2.622 4.405-5.28 4.405-.873 0-2.323-.276-3.131-.617-.17-.085-.233-.361-.3-.83l-.254-2c0-.127.428-.127.554-.127.07 0 .13.04.17.19.49 1.617 1.6 2.554 3.301 2.554 1.492 0 2.915-1.299 2.915-2.744 0-1.385-.785-2.215-1.892-2.874l-2.701-1.597zm15.502 5.854c0 1.577 1.062 1.577 2.383 1.577l.13.105v.341c0 .257-.108.257-.45.257-.424 0-1.465-.108-2.956-.108-1.172 0-3.004.108-3.513.108-.045-.151-.085-.257-.085-.383 0-.066.022-.193.085-.236l.215-.084h.255c1.937 0 2.021-.662 2.021-2.427V8.065l-.063-.978h-2.852c-1.62 0-1.878 1.02-2.28 2.383-.04.129-.128.192-.254.192-.302 0-.488-.086-.488-.212 0-.363.252-2.342.252-4.025 0-.084.299-.084.598-.084.681.916.892.916 1.807.916h7.918c1.49 0 1.918-.448 2.45-1.108.152 0 .637 0 .637.192 0 .171-.425 1.915-.467 3.45 0 .231-.067.679-.17.679-.193 0-.68-.105-.68-.212l-.084-1.066c-.089-1.084-.597-1.105-1.471-1.105h-2.938v11.919zm8.936-10.964c0-1.381-1.045-1.533-2.278-1.533-.084 0-.084-.107-.084-.19v-.235c0-.192.362-.211 1.106-.211.849 0 1.809.105 2.705.105.85 0 1.701-.105 2.55-.105h4.496c.167 0 .19.19.19.424v2.598c0 .085-.045.17-.151.17-.17 0-.51.02-.532-.233l-.066-.662c-.126-1.362-1.062-1.597-2.252-1.597h-2.195c-1.19 0-1.574.256-1.574 1.873V12.3c0 .063.128.171.173.171l2.508-.085c1.276-.044 1.642-.446 1.96-1.577.041-.127.107-.171.343-.171.147 0 .25.025.25.13 0 .448-.124 1.427-.124 2.128 0 1.15.124 1.767.124 2.128 0 .129-.21.257-.339.257-.17 0-.318-.065-.361-.279-.107-.571-.107-.977-.21-1.274-.11-.32-.367-.47-1.004-.491l-3.022-.063c-.298 0-.298.105-.298.253v5.07c0 1.53 1.128 1.573 2.597 1.573h1.15c1.13 0 1.916-.022 2.448-.342.471-.275 1.128-1.572 1.36-2.105.28 0 .639.063.639.211 0 .065-.063.234-.105.341l-.596 2.15c-.17.577-.275.577-.554.577-2.299 0-4.556-.11-7.64-.11-.702 0-2.49.11-3.576.11-.066 0-.13-.213-.13-.343 0-.17.043-.36.13-.36 1.849-.087 2.362-.279 2.362-2.237v-9.92zm15.277 4.662c.276.022.533.045.808.045 1.7 0 3.832-.598 3.832-3.11 0-1.871-1.276-3.086-3.149-3.086-1.45 0-1.491.34-1.491.979v5.172zm-1.916-4.534c0-1.063-.044-1.597-1.386-1.597h-.874c-.125 0-.147-.232-.147-.403 0-.107.065-.297.147-.297 1.236 0 2.496.062 3.729.062.98 0 1.938-.062 2.915-.062 2.172 0 4.302 1.448 4.302 3.68 0 1.937-1.768 3.236-3.428 3.493v.041c.83.192 1.704 1.746 1.915 2.085l2.342 3.579c.743 1.13 1.233 1.342 2.513 1.405l.126.126v.407c0 .189-.149.213-.233.213-.45 0-1.11-.066-1.428-.066-.512 0-1.021.066-1.53.066-.492 0-1.45-1.428-2.705-3.662-1.384-2.45-2.195-3.791-3.6-3.791-.167 0-.425 0-.742.044v5.216c0 .765 0 1.49 1.066 1.49.804 0 1.17 0 1.17.167 0 .405-.062.536-.388.536-1.107 0-2.019-.109-2.936-.109-.36 0-2.72.109-3.021.109-.128 0-.17-.277-.17-.45 0-.19.083-.233.509-.254 1.468-.064 1.854-.277 1.854-1.747V8.17zm17.189 9.543c0 2.343 2.406 2.343 3.339 2.343 2.916 0 6.023-2.405 6.023-6.856 0-3.79-2.042-5.663-3.512-6.513-1.02-.447-2.363-.553-3.277-.553-1.743 0-2.573.126-2.573 1.49v10.09zm-1.92-9.495c0-.808-.167-1.638-.958-1.638-.254 0-.933.085-1.339.085-.087 0-.087-.319-.087-.425 0-.128 0-.192.364-.275 1.428-.3 4.83-.533 6.66-.533 1.174 0 2.28.106 3.324.38 2.893.79 5.597 3.366 5.597 7.282 0 5.278-4.409 7.665-8.453 7.665-2.022 0-3.087-.087-4.146-.087-1.067 0-2.13.063-3.196.087-.084 0-.105-.192-.105-.343 0-.149.105-.36.19-.36.683-.086 1.233-.128 1.62-.385.318-.213.529-.554.529-1.233V8.218zm22.05 5.893-2.365-6.088h-.043l-2.015 6.088h4.423zm-4.708.828-.933 3.024c-.173.552-.255 1.043-.255 1.384 0 .701 1 .852 1.576.852.188 0 .232.126.232.402 0 .214-.023.3-.17.3-.49 0-2.042-.108-2.619-.108-.575 0-1.468.109-2.106.109-.425 0-.425-.066-.425-.343v-.234c0-.106.192-.15.702-.191 1.106-.107 1.254-.32 1.66-1.49l4.213-12.261c.425-.36.874-.852 1.405-1.024l5.343 13.476c.365.893.748 1.34 1.981 1.34.236 0 .276.258.276.49 0 .237-.147.237-.401.237-.34 0-1.705-.11-2.535-.11-.853 0-1.705.044-2.557.11-.317 0-.338-.066-.338-.366 0-.232.127-.337.424-.337.32 0 1.364-.065 1.364-.577 0-.168-.085-.51-.384-1.255l-1.36-3.428h-5.093zm25.662-9.066c.661 0 1.343.062 2.023.062.53 0 1.087-.062 1.619-.062.318 0 .38.083.38.15v.338c0 .149-.062.256-.145.256-.15 0-.386-.044-.64-.044-1.233 0-1.233.618-1.233 2.003 0 1.213.232 9.174.232 10.345 0 .594.3 1.278 1.215 1.278.848 0 .958.042.958.234 0 .256-.128.469-.192.469-1.131 0-2.022-.11-2.918-.11-.893 0-1.808.11-2.726.11-.148 0-.169-.086-.169-.213v-.214c0-.213.191-.276 1.169-.276.427 0 .807-.51.807-1.257 0-2.297-.08-7.258-.165-10.9-.085-.019-.066-.019-.066-.019-1.193 2.448-2.746 6.002-3.468 7.898l-2 5.258a.2.2 0 0 1-.192.126c-.108 0-.191-.108-.257-.403a10.072 10.072 0 0 0-.533-1.555l-4.022-9.794c-.15-.362-.276-.617-.36-.617-.086 0-.086.425-.086.661 0 1.683-.259 8.11-.259 9.154 0 .915 0 1.448 1.874 1.448.13 0 .149.105.149.36 0 .085-.019.343-.107.343-.295 0-1.34-.11-2.49-.11-1.214 0-2.407.11-2.701.11-.064 0-.126-.066-.126-.173v-.318c0-.192.167-.212.42-.212 1.748 0 2.004-.533 2.004-2.386 0-1.043.362-8.877.362-9.643 0-1.128-.55-1.597-2.472-1.597-.06 0-.107-.104-.107-.234v-.275c0-.108.067-.19.173-.19.81 0 1.574.104 2.431.104.529 0 1.081-.105 1.614-.105.15 0 .298.341.406.617l4.596 11.005h.108l4.894-11.622zM0 42h42V0H0v42zM16.072 3.857 17.827 2.1 21 5.273 24.173 2.1l1.756 1.756-3.173 3.173 3.173 3.174-1.756 1.756L21 8.786l-3.173 3.173-1.756-1.756 3.173-3.174-3.172-3.172zm3.172 14.825-3.172-3.173 1.755-1.756L21 16.926l3.173-3.173 1.756 1.756-3.173 3.173 3.173 3.173-1.756 1.757L21 20.438l-3.173 3.173-1.756-1.756 3.173-3.173zm6.682 19.438-1.756 1.757-3.173-3.174-3.173 3.173-1.756-1.756 3.173-3.173-3.173-3.172 1.756-1.757 3.173 3.173 3.173-3.173 1.756 1.756-3.173 3.173 3.173 3.173zm1.228-9.036.005-3.825-1.723 1.617s-1.003 1.031-3.276 1.616c-2.27.582-3.994.477-5.027.268-1.032-.206-1.961-.482-2.547-.76-.586-.276-1.618-.794-2.546-2.242-.549-.855-.549-2.997-.549-2.997l.042-3.993-.303-6.752s1.023.044 1.72.047c.86.005 1.6-.188 1.62-.076.034.209.057 9.402.057 9.402s.101 1.963.584 2.962c.844 1.754 4.612 1.9 4.612 1.9s.585.069 1.894-.033c1.307-.1 3.86-.478 4.685-2.025 0 0 .587-.654.798-4.372.221-3.894-.3-7.75-.3-7.75l3.651-.167s-.247 2.753-.253 7.92c-.005 5.166.473 8.196.473 8.196l-3.617 1.064z"></path>
    </g>
</svg>