<svg xmlns:xlink="http://www.w3.org/1999/xlink" xmlns="http://www.w3.org/2000/svg" class="icon-uvalogo uvalogo-medium" role="presentation" preserveAspectRatio="xMinYMax" aria-hidden="true" width="200" height="42"><defs><symbol id="logo-uva-medium-en" viewBox="0 0 200 42" preserveAspectRatio="xMinYMin"><title>logo-UvA-medium-en </title><path d="M43.953 3.288c0-1.824-1.11-1.824-2.38-1.824l-.114-.095V.978c0-.253.161-.277.415-.277.6 0 2.079.117 3.164.117C46.19.818 47.367.7 48.521.7l.07.069v.6l-.115.094H48.2c-1.502 0-2.172.159-2.172 1.893v6.693c0 3.324.648 5.933 4.616 5.933 4.133 0 5.47-1.987 5.47-5.888V4.094c0-2.63 0-2.448-2.03-2.63l-.092-.186V.84l.07-.138c.414 0 .876.117 2.606.117.972 0 2.195-.117 2.934-.117l.091.138v.485l-.14.14c-1.681 0-2.284.092-2.284 1.244v8.24c0 4.228-2.469 6.372-6.67 6.372-3.347 0-6.647-1.176-6.647-5.031V3.288Z"></path><path d="M61.012 6.885c0-.347-.016-.433-.086-.57-.154-.297-.917-.917-1.209-.936l-.918-.051c-.07 0-.087-.173-.087-.31 0-.09 0-.226.087-.226.537 0 .95-.035 1.381-.035.798 0 2.061.07 2.37.105l5.243 6.33a39.722 39.722 0 0 0 2.82 3.114h.068v-7.61c0-1.143-.415-1.317-.97-1.332l-.742-.036c-.07 0-.106-.173-.106-.292 0-.108.052-.28.157-.28.38 0 1.28.088 2.127.088.78 0 1.61-.087 2.093-.087.088 0 .104.07.104.14v.327c0 .085-.036.104-.155.104h-.45c-1.192 0-1.192.606-1.192 2.076V17.42h-.416L61.79 6.748v7.94c0 1.485.209 1.655 1.695 1.71.069 0 .121.156.121.292 0 .14-.017.279-.069.279-.329 0-1.434-.087-2.16-.087-.849 0-1.23.087-2.023.087-.106 0-.124-.121-.124-.346 0-.157.018-.225.227-.225.723 0 1.555-.171 1.555-1.055V6.885zm16.87 6.884c0 2.524.051 2.541 1.747 2.63l.087.122v.327c0 .103-.26.12-.416.12-.242 0-1.4-.086-2.11-.086-.83 0-1.678.087-2.576.087-.069-.036-.086-.139-.086-.313.017-.223.051-.258.552-.258 1.194 0 1.245-.26 1.245-1.575V6.556c0-.985-.293-1.228-1.746-1.228l-.051-.085-.034-.279c.016-.19.173-.208.276-.208.466 0 1.02.088 2.195.088.864 0 1.904-.088 2.595-.088l.086.124v.31l-.069.105-.467.033c-.691.051-1.229.123-1.229.918v7.523zm4.153-7.854c-.19-.464-.88-.587-1.367-.587l-.103-.085v-.45l.19-.036c.727 0 1.783.087 2.164.087.794 0 1.572-.087 2.367-.087l.052.054-.052.484-.812.069c-.277.015-.588.12-.588.378 0 .139.087.364.156.52l1.988 5.191 1.126 2.573c.12.26.137.313.19.313.034 0 .084-.072.154-.274l2.474-6.558c.277-.742.484-1.385.467-1.592-.018-.293-.105-.448-.605-.497l-.9-.09-.104-.052v-.534c.676 0 1.348.102 2.025.102.536 0 1.677-.102 1.798-.102l.138.069v.397l-.154.12-.538.036c-.347.015-.485.19-.725.796-1.644 3.959-2.041 5.206-3.355 8.543l-.883 2.248c-.085.243-.12.259-.242.259-.157 0-.19-.052-.224-.121L82.035 5.915zm13.53.606c0-1.123-.847-1.245-1.85-1.245-.07 0-.07-.086-.07-.157v-.19c0-.154.295-.172.9-.172.692 0 1.47.087 2.197.087.69 0 1.384-.087 2.076-.087h3.649c.137 0 .154.158.154.346v2.11c0 .07-.034.138-.12.138-.138 0-.414.02-.433-.19l-.051-.535c-.106-1.106-.866-1.298-1.834-1.298h-1.78c-.971 0-1.28.21-1.28 1.523v3.13c0 .05.103.138.138.138l2.04-.069c1.037-.034 1.334-.364 1.592-1.28.034-.101.087-.138.275-.138.124 0 .21.017.21.105 0 .363-.104 1.158-.104 1.73 0 .93.105 1.436.105 1.726 0 .106-.175.21-.279.21-.137 0-.26-.053-.294-.226-.085-.465-.085-.799-.171-1.037-.089-.258-.297-.381-.815-.396l-2.456-.055c-.242 0-.242.09-.242.208v4.118c0 1.245.918 1.278 2.11 1.278h.934c.917 0 1.556-.016 1.99-.274.381-.228.916-1.283 1.105-1.713.226 0 .52.05.52.172 0 .053-.05.192-.086.276l-.485 1.747c-.138.468-.224.468-.45.468-1.867 0-3.7-.087-6.208-.087-.57 0-2.024.087-2.907.087-.051 0-.104-.175-.104-.279 0-.136.036-.291.104-.291 1.508-.07 1.92-.226 1.92-1.817V6.521zm12.96 3.79c.227.016.432.033.657.033 1.385 0 3.115-.483 3.115-2.525 0-1.524-1.04-2.51-2.56-2.51-1.177 0-1.211.28-1.211.797v4.205zm-1.556-3.685c0-.865-.036-1.298-1.124-1.298h-.708c-.105 0-.12-.19-.12-.328 0-.085.05-.244.12-.244 1 0 2.024.055 3.026.055.794 0 1.574-.055 2.37-.055 1.764 0 3.493 1.177 3.493 2.994 0 1.572-1.436 2.629-2.785 2.836v.034c.674.158 1.383 1.42 1.558 1.695l1.9 2.908c.607.916 1.005 1.087 2.041 1.142l.105.101v.328c0 .157-.122.175-.19.175-.362 0-.899-.051-1.16-.051-.413 0-.83.05-1.245.05-.396 0-1.176-1.159-2.197-2.975-1.123-1.99-1.781-3.078-2.92-3.078-.14 0-.347 0-.607.033v4.242c0 .62 0 1.208.865 1.208.657 0 .95 0 .95.138 0 .328-.05.433-.31.433-.898 0-1.643-.087-2.388-.087-.293 0-2.213.087-2.454.087-.105 0-.139-.226-.139-.364 0-.153.069-.189.417-.207 1.192-.054 1.502-.225 1.502-1.419V6.626zm12.615 4.046c-1.245-.743-1.748-1.436-1.748-2.784 0-2.16 1.766-3.371 4.099-3.371.658 0 1.592.225 2.178.483l.12 2.162v.086c0 .088-.17.123-.413.123-.226 0-.258-.105-.275-.278-.123-1.16-.952-1.903-2.182-1.903-1.175 0-2.09.829-2.09 1.939 0 1.243.758 1.73 2.488 2.643 1.713.9 3.201 1.696 3.201 3.859 0 2.352-2.128 3.579-4.288 3.579-.71 0-1.887-.227-2.544-.5-.138-.072-.19-.294-.24-.673l-.209-1.628c0-.103.347-.103.449-.103.052 0 .104.033.138.153.398 1.317 1.297 2.077 2.683 2.077 1.21 0 2.368-1.054 2.368-2.23 0-1.126-.64-1.801-1.54-2.336l-2.195-1.298zm10.208 3.097c0 2.524.051 2.541 1.747 2.63l.088.122v.327c0 .103-.261.12-.419.12-.24 0-1.398-.086-2.108-.086-.831 0-1.676.087-2.576.087-.07-.036-.086-.139-.086-.313.016-.223.05-.258.551-.258 1.196 0 1.247-.26 1.247-1.575V6.556c0-.985-.294-1.228-1.748-1.228l-.05-.085-.036-.279c.018-.19.174-.208.277-.208.467 0 1.02.088 2.196.088.866 0 1.903-.088 2.596-.088l.086.124v.31l-.068.105-.47.033c-.69.051-1.227.123-1.227.918v7.523zm9.186 1.351c0 1.278.865 1.278 1.938 1.278l.104.087v.276c0 .207-.087.207-.366.207-.346 0-1.193-.086-2.402-.086-.95 0-2.437.086-2.855.086-.035-.12-.069-.207-.069-.312 0-.051.018-.155.07-.19l.174-.068h.208c1.574 0 1.643-.535 1.643-1.972V6.229l-.051-.796h-2.318c-1.316 0-1.525.83-1.852 1.938-.034.103-.104.154-.208.154-.24 0-.4-.07-.4-.174 0-.293.21-1.9.21-3.268 0-.069.244-.069.483-.069.554.743.728.743 1.473.743h6.432c1.211 0 1.556-.363 1.99-.899.119 0 .517 0 .517.156 0 .139-.345 1.557-.381 2.803 0 .19-.053.554-.136.554-.156 0-.555-.089-.555-.177l-.069-.862c-.067-.881-.484-.899-1.19-.899h-2.39v9.687zm10.65-3.65c0-.176-.017-.401-.208-.681l-3.902-5.276c-.104-.158-.26-.244-.663-.26l-.66-.038-.104-.051V4.71l.104-.051h.209c.296 0 2.16.086 2.49.086.435 0 1.134-.086 1.707-.086.382 0 .556 0 .556.105v.21c0 .172-.052.258-.104.258l-1.01.036c-.245 0-.4.103-.4.295 0 .07.102.245.28.469l2.489 3.468c.138.192.295.365.47.523.33-.315 1.865-2.423 2.613-3.518.279-.403.437-.733.437-.871 0-.244-.142-.347-.647-.366l-.872-.036c.02 0 0-.258 0-.33 0-.088.02-.192.107-.243.678.069 1.514.086 2.263.086.506 0 1.27-.086 1.497-.086l.106.069v.401l-.07.07-.644.033c-.558.036-1.254 1.219-1.586 1.672l-2.889 3.955v4.091c0 .366.016.682.052.786.138.415.591.645 1.236.645h.47l.156.07v.486l-.087.018h-.262c-.766 0-1.513-.09-2.281-.09-.782 0-1.585.09-2.367.09h-.245l-.14-.036v-.297c0-.102.035-.225.175-.24l.817-.09c.506-.052.907-.226.907-1.096V11.47zM53.046 35.517c0-2.905-1.985-5.86-5.097-5.86-3.198 0-4.737 2.506-4.737 5.424 0 2.959 1.797 6.018 5.013 6.018 3.181 0 4.821-2.608 4.821-5.582m-11.682.136c0-3.613 3.092-6.568 6.672-6.568 3.628 0 6.862 2.489 6.862 6.084 0 3.477-3.354 6.604-6.796 6.604-3.61 0-6.738-2.347-6.738-6.12m15.649-4.387c0-1.053-.171-1.28-1.19-1.28h-.295c-.309.019-.447-.035-.447-.14 0-.139 0-.433.192-.433h7.084c.587 0 1.175-.084 1.78-.084.103 0 .243.018.243.156l.07 1.95c0 .122.018.244.018.365 0 .07-.139.102-.314.102h-.258c-.036-.205-.07-.414-.12-.602l-.156-.537c-.189-.676-.691-.778-1.229-.778h-2.42c-1.28 0-1.401.396-1.401 1.66v3.042h2.56c1.485 0 1.849-.414 1.849-1.365.172-.038.346-.088.467-.088.069 0 .105.036.105.122 0 .136-.07.397-.07 1.659 0 .502.07 1.4.07 1.78 0 .156-.12.224-.312.224-.138 0-.19-.154-.26-.431-.12-.71-.466-1.332-1.935-1.332H58.57v4.53c0 .674.09 1.037.971 1.107l.898.07c.086 0 .119.104.119.222 0 .14 0 .346-.188.346-1.298 0-1.85-.085-2.663-.085-.709 0-1.987.085-2.452.085-.142 0-.142-.173-.142-.307 0-.106.018-.262.09-.262l.761-.051c.913-.07 1.049-.277 1.049-1.296v-8.35zm23.19 2.99-2.567-6.617h-.049l-2.194 6.616h4.81zm-5.115.903-1.016 3.284c-.187.603-.277 1.133-.277 1.505 0 .763 1.085.924 1.713.924.205 0 .254.138.254.44 0 .23-.026.326-.188.326-.53 0-2.22-.119-2.844-.119-.622 0-1.596.119-2.292.119-.46 0-.46-.072-.46-.373v-.255c0-.115.205-.16.762-.208 1.204-.114 1.368-.345 1.808-1.62l4.579-13.323c.46-.392.947-.927 1.523-1.111l5.81 14.644c.391.972.81 1.457 2.15 1.457.255 0 .3.279.3.532 0 .257-.158.257-.437.257-.375 0-1.853-.119-2.756-.119-.925 0-1.851.047-2.775.119-.346 0-.37-.072-.37-.396 0-.252.139-.37.464-.37.348 0 1.48-.07 1.48-.625 0-.185-.092-.555-.417-1.365l-1.48-3.723h-5.531zm24.308-5.785c.538 0 1.092.05 1.648.05.435 0 .885-.05 1.318-.05.26 0 .313.068.313.122v.276c0 .121-.052.208-.124.208-.12 0-.31-.035-.52-.035-1.007 0-1.007.504-1.007 1.632 0 .989.192 7.478.192 8.433 0 .484.244 1.042.99 1.042.694 0 .778.035.778.191 0 .208-.102.382-.153.382-.921 0-1.648-.09-2.378-.09-.729 0-1.475.09-2.22.09-.124 0-.139-.07-.139-.174v-.174c0-.173.156-.225.954-.225.348 0 .659-.416.659-1.024 0-1.873-.068-5.917-.139-8.885-.07-.016-.052-.016-.052-.016-.97 1.996-2.237 4.893-2.827 6.437l-1.635 4.286c-.013.051-.066.103-.154.103-.084 0-.156-.087-.207-.328a7.801 7.801 0 0 0-.436-1.267l-3.279-7.984c-.122-.295-.225-.503-.292-.503-.074 0-.074.347-.074.54 0 1.37-.205 6.609-.205 7.46 0 .746 0 1.18 1.528 1.18.103 0 .12.086.12.295 0 .069-.017.279-.087.279-.244 0-1.092-.09-2.03-.09-.987 0-1.96.09-2.205.09-.05 0-.104-.054-.104-.141v-.26c0-.156.14-.172.348-.172 1.423 0 1.63-.435 1.63-1.945 0-.85.293-7.236.293-7.86 0-.92-.45-1.302-2.008-1.302-.053 0-.09-.085-.09-.19v-.226c0-.087.054-.155.142-.155.658 0 1.284.086 1.976.086.433 0 .885-.086 1.32-.086.123 0 .244.278.328.503l3.75 8.97h.082l3.996-9.473zm6.276 5.934c-1.254-.747-1.758-1.442-1.758-2.792 0-2.171 1.77-3.385 4.113-3.385.66 0 1.597.224 2.189.485l.12 2.17v.086c0 .087-.174.12-.418.12-.225 0-.257-.103-.276-.275-.121-1.163-.955-1.911-2.187-1.911-1.179 0-2.098.833-2.098 1.945 0 1.249.764 1.734 2.498 2.653 1.72.904 3.212 1.7 3.212 3.87 0 2.362-2.138 3.592-4.304 3.592-.712 0-1.893-.225-2.553-.503-.137-.07-.19-.295-.244-.677l-.207-1.63c0-.104.348-.104.451-.104.057 0 .106.033.139.155.4 1.318 1.305 2.082 2.691 2.082 1.216 0 2.376-1.059 2.376-2.237 0-1.129-.64-1.805-1.543-2.343l-2.201-1.301zm12.636 4.771c0 1.286.866 1.286 1.943 1.286l.106.086v.278c0 .21-.088.21-.366.21-.346 0-1.195-.09-2.41-.09-.956 0-2.45.09-2.864.09-.037-.124-.07-.21-.07-.313 0-.054.019-.158.07-.193l.175-.068h.208c1.579 0 1.648-.54 1.648-1.979v-8.225l-.052-.798h-2.325c-1.32 0-1.53.833-1.858 1.943-.033.105-.104.156-.208.156-.246 0-.397-.07-.397-.172 0-.296.206-1.909.206-3.281 0-.068.243-.068.487-.068.555.747.727.747 1.473.747h6.454c1.215 0 1.564-.366 1.997-.904.124 0 .52 0 .52.157 0 .14-.347 1.56-.381 2.811 0 .19-.055.554-.139.554-.157 0-.554-.085-.554-.172l-.069-.87c-.072-.883-.486-.9-1.199-.9h-2.395v9.715zm7.284-8.937c0-1.126-.851-1.25-1.857-1.25-.067 0-.067-.086-.067-.154v-.192c0-.156.294-.172.9-.172.693 0 1.475.086 2.206.086.693 0 1.387-.086 2.079-.086h3.664c.136 0 .155.155.155.346v2.117c0 .07-.036.14-.123.14-.138 0-.416.015-.433-.191l-.054-.54c-.103-1.11-.866-1.301-1.836-1.301h-1.79c-.97 0-1.282.209-1.282 1.526v3.142c0 .052.104.14.14.14l2.045-.07c1.04-.035 1.339-.364 1.597-1.286.034-.103.088-.139.28-.139.12 0 .204.02.204.106 0 .365-.101 1.163-.101 1.735 0 .937.101 1.44.101 1.735 0 .104-.171.209-.276.209-.138 0-.26-.053-.295-.227-.086-.466-.086-.797-.171-1.04-.09-.26-.299-.382-.818-.4l-2.464-.05c-.242 0-.242.085-.242.206v4.132c0 1.248.92 1.283 2.116 1.283h.938c.92 0 1.562-.018 1.996-.28.384-.223.92-1.28 1.108-1.715.228 0 .52.051.52.172 0 .053-.05.19-.084.278l-.487 1.753c-.138.47-.223.47-.45.47-1.875 0-3.715-.09-6.229-.09-.572 0-2.03.09-2.914.09-.055 0-.106-.174-.106-.28 0-.138.034-.294.106-.294 1.506-.07 1.924-.226 1.924-1.822v-8.087zm12.453 3.8c.226.018.435.037.66.037 1.386 0 3.123-.487 3.123-2.535 0-1.525-1.04-2.516-2.567-2.516-1.182 0-1.216.278-1.216.798v4.217zm-1.561-3.696c0-.866-.036-1.301-1.13-1.301h-.713c-.101 0-.12-.19-.12-.329 0-.087.054-.242.12-.242 1.008 0 2.035.05 3.04.05.8 0 1.58-.05 2.376-.05 1.77 0 3.507 1.18 3.507 3 0 1.579-1.441 2.638-2.795 2.847v.034c.677.156 1.39 1.423 1.562 1.7l1.91 2.917c.604.92 1.004 1.093 2.048 1.145l.102.103v.331c0 .154-.121.174-.19.174-.366 0-.905-.054-1.164-.054-.417 0-.832.054-1.248.054-.4 0-1.18-1.164-2.204-2.985-1.128-1.997-1.789-3.09-2.935-3.09-.136 0-.346 0-.605.036v4.251c0 .624 0 1.214.87 1.214.655 0 .953 0 .953.137 0 .33-.05.437-.316.437-.902 0-1.645-.089-2.393-.089-.293 0-2.217.089-2.463.089-.104 0-.139-.226-.139-.366 0-.156.068-.19.415-.208 1.197-.052 1.512-.226 1.512-1.424v-8.38zm14.011 7.78c0 1.91 1.961 1.91 2.722 1.91 2.377 0 4.91-1.961 4.91-5.59 0-3.088-1.665-4.616-2.863-5.309-.832-.364-1.926-.45-2.671-.45-1.421 0-2.098.102-2.098 1.215v8.224zm-1.565-7.74c0-.659-.136-1.335-.78-1.335-.208 0-.761.069-1.092.069-.07 0-.07-.26-.07-.347 0-.104 0-.156.296-.224 1.164-.244 3.937-.434 5.428-.434.957 0 1.859.086 2.71.31 2.358.644 4.562 2.743 4.562 5.935 0 4.303-3.594 6.248-6.89 6.248-1.648 0-2.517-.07-3.38-.07-.87 0-1.736.05-2.604.07-.07 0-.087-.156-.087-.28 0-.12.087-.293.156-.293.556-.07 1.005-.104 1.32-.313.26-.174.43-.452.43-1.005v-8.331zm17.974 4.803-1.927-4.962h-.036l-1.643 4.962h3.606zm-3.838.676-.76 2.464c-.14.45-.208.85-.208 1.129 0 .57.815.694 1.285.694.153 0 .189.103.189.328 0 .174-.019.245-.138.245-.4 0-1.665-.09-2.135-.09-.47 0-1.197.09-1.717.09-.346 0-.346-.054-.346-.28v-.19c0-.087.156-.123.572-.156.901-.087 1.022-.26 1.352-1.215l3.435-9.994c.346-.294.712-.694 1.145-.835l4.355 10.985c.298.728.61 1.092 1.615 1.092.193 0 .225.211.225.4 0 .193-.12.193-.327.193-.277 0-1.39-.09-2.066-.09-.696 0-1.39.036-2.084.09-.259 0-.276-.054-.276-.298 0-.19.104-.275.346-.275.26 0 1.112-.053 1.112-.47 0-.138-.07-.416-.314-1.023l-1.109-2.794h-4.15zm20.919-7.39c.539 0 1.094.05 1.65.05.43 0 .885-.05 1.318-.05.26 0 .31.067.31.12v.277c0 .121-.05.208-.118.208-.123 0-.315-.035-.522-.035-1.005 0-1.005.504-1.005 1.632 0 .989.19 7.478.19 8.433 0 .484.243 1.042.99 1.042.69 0 .781.035.781.191 0 .208-.105.382-.157.382-.922 0-1.648-.09-2.378-.09-.729 0-1.474.09-2.223.09-.12 0-.137-.07-.137-.174v-.174c0-.173.156-.225.953-.225.348 0 .658-.416.658-1.024 0-1.873-.066-5.917-.135-8.885-.07-.016-.054-.016-.054-.016-.972 1.996-2.238 4.893-2.827 6.437l-1.63 4.286a.163.163 0 0 1-.157.103c-.088 0-.156-.087-.21-.328a8.21 8.21 0 0 0-.433-1.267l-3.28-7.984c-.121-.295-.224-.503-.293-.503-.07 0-.07.347-.07.54 0 1.37-.21 6.609-.21 7.46 0 .746 0 1.18 1.527 1.18.106 0 .121.086.121.295 0 .069-.015.279-.087.279-.24 0-1.092-.09-2.03-.09-.99 0-1.962.09-2.201.09-.052 0-.103-.054-.103-.141v-.26c0-.156.136-.172.342-.172 1.425 0 1.634-.435 1.634-1.945 0-.85.295-7.236.295-7.86 0-.92-.448-1.302-2.015-1.302-.049 0-.087-.085-.087-.19v-.226c0-.087.054-.155.14-.155.66 0 1.284.086 1.983.086.43 0 .88-.086 1.315-.086.122 0 .243.278.33.503l3.747 8.97h.088l3.99-9.473zM0 34h34V0H0v34zM13.01 3.122 14.432 1.7 17 4.27 19.57 1.7l1.421 1.422-2.568 2.568 2.568 2.57-1.421 1.42L17 7.113l-2.568 2.569-1.422-1.422 2.568-2.569-2.568-2.568zm2.568 12.002-2.568-2.569 1.422-1.422L17 13.702l2.569-2.569 1.421 1.422-2.568 2.569 2.568 2.568-1.421 1.422L17 16.545l-2.568 2.569-1.422-1.422 2.568-2.568zm5.41 15.735-1.421 1.422-2.57-2.569-2.568 2.569-1.422-1.422 2.569-2.568-2.569-2.568L14.43 24.3l2.569 2.569 2.568-2.569 1.422 1.422-2.569 2.569 2.569 2.568zm.994-7.315.004-3.096-1.395 1.309s-.812.835-2.652 1.308c-1.838.471-3.233.386-4.07.217-.835-.167-1.587-.39-2.061-.615-.474-.224-1.31-.643-2.061-1.815-.445-.692-.445-2.426-.445-2.426l.034-3.233-.245-5.466s.828.036 1.393.038c.695.004 1.295-.152 1.311-.062.027.17.046 7.612.046 7.612s.082 1.589.472 2.398c.684 1.42 3.734 1.538 3.734 1.538s.474.055 1.534-.027c1.057-.081 3.124-.387 3.792-1.64 0 0 .475-.528.646-3.538.18-3.153-.243-6.274-.243-6.274l2.956-.136s-.2 2.23-.205 6.411c-.004 4.183.383 6.636.383 6.636l-2.928.86z"></path></symbol></defs>
                    <g fill="#1F1D21"><title>logo-UvA-medium-en </title><path d="M43.953 3.288c0-1.824-1.11-1.824-2.38-1.824l-.114-.095V.978c0-.253.161-.277.415-.277.6 0 2.079.117 3.164.117C46.19.818 47.367.7 48.521.7l.07.069v.6l-.115.094H48.2c-1.502 0-2.172.159-2.172 1.893v6.693c0 3.324.648 5.933 4.616 5.933 4.133 0 5.47-1.987 5.47-5.888V4.094c0-2.63 0-2.448-2.03-2.63l-.092-.186V.84l.07-.138c.414 0 .876.117 2.606.117.972 0 2.195-.117 2.934-.117l.091.138v.485l-.14.14c-1.681 0-2.284.092-2.284 1.244v8.24c0 4.228-2.469 6.372-6.67 6.372-3.347 0-6.647-1.176-6.647-5.031V3.288Z"></path><path d="M61.012 6.885c0-.347-.016-.433-.086-.57-.154-.297-.917-.917-1.209-.936l-.918-.051c-.07 0-.087-.173-.087-.31 0-.09 0-.226.087-.226.537 0 .95-.035 1.381-.035.798 0 2.061.07 2.37.105l5.243 6.33a39.722 39.722 0 0 0 2.82 3.114h.068v-7.61c0-1.143-.415-1.317-.97-1.332l-.742-.036c-.07 0-.106-.173-.106-.292 0-.108.052-.28.157-.28.38 0 1.28.088 2.127.088.78 0 1.61-.087 2.093-.087.088 0 .104.07.104.14v.327c0 .085-.036.104-.155.104h-.45c-1.192 0-1.192.606-1.192 2.076V17.42h-.416L61.79 6.748v7.94c0 1.485.209 1.655 1.695 1.71.069 0 .121.156.121.292 0 .14-.017.279-.069.279-.329 0-1.434-.087-2.16-.087-.849 0-1.23.087-2.023.087-.106 0-.124-.121-.124-.346 0-.157.018-.225.227-.225.723 0 1.555-.171 1.555-1.055V6.885zm16.87 6.884c0 2.524.051 2.541 1.747 2.63l.087.122v.327c0 .103-.26.12-.416.12-.242 0-1.4-.086-2.11-.086-.83 0-1.678.087-2.576.087-.069-.036-.086-.139-.086-.313.017-.223.051-.258.552-.258 1.194 0 1.245-.26 1.245-1.575V6.556c0-.985-.293-1.228-1.746-1.228l-.051-.085-.034-.279c.016-.19.173-.208.276-.208.466 0 1.02.088 2.195.088.864 0 1.904-.088 2.595-.088l.086.124v.31l-.069.105-.467.033c-.691.051-1.229.123-1.229.918v7.523zm4.153-7.854c-.19-.464-.88-.587-1.367-.587l-.103-.085v-.45l.19-.036c.727 0 1.783.087 2.164.087.794 0 1.572-.087 2.367-.087l.052.054-.052.484-.812.069c-.277.015-.588.12-.588.378 0 .139.087.364.156.52l1.988 5.191 1.126 2.573c.12.26.137.313.19.313.034 0 .084-.072.154-.274l2.474-6.558c.277-.742.484-1.385.467-1.592-.018-.293-.105-.448-.605-.497l-.9-.09-.104-.052v-.534c.676 0 1.348.102 2.025.102.536 0 1.677-.102 1.798-.102l.138.069v.397l-.154.12-.538.036c-.347.015-.485.19-.725.796-1.644 3.959-2.041 5.206-3.355 8.543l-.883 2.248c-.085.243-.12.259-.242.259-.157 0-.19-.052-.224-.121L82.035 5.915zm13.53.606c0-1.123-.847-1.245-1.85-1.245-.07 0-.07-.086-.07-.157v-.19c0-.154.295-.172.9-.172.692 0 1.47.087 2.197.087.69 0 1.384-.087 2.076-.087h3.649c.137 0 .154.158.154.346v2.11c0 .07-.034.138-.12.138-.138 0-.414.02-.433-.19l-.051-.535c-.106-1.106-.866-1.298-1.834-1.298h-1.78c-.971 0-1.28.21-1.28 1.523v3.13c0 .05.103.138.138.138l2.04-.069c1.037-.034 1.334-.364 1.592-1.28.034-.101.087-.138.275-.138.124 0 .21.017.21.105 0 .363-.104 1.158-.104 1.73 0 .93.105 1.436.105 1.726 0 .106-.175.21-.279.21-.137 0-.26-.053-.294-.226-.085-.465-.085-.799-.171-1.037-.089-.258-.297-.381-.815-.396l-2.456-.055c-.242 0-.242.09-.242.208v4.118c0 1.245.918 1.278 2.11 1.278h.934c.917 0 1.556-.016 1.99-.274.381-.228.916-1.283 1.105-1.713.226 0 .52.05.52.172 0 .053-.05.192-.086.276l-.485 1.747c-.138.468-.224.468-.45.468-1.867 0-3.7-.087-6.208-.087-.57 0-2.024.087-2.907.087-.051 0-.104-.175-.104-.279 0-.136.036-.291.104-.291 1.508-.07 1.92-.226 1.92-1.817V6.521zm12.96 3.79c.227.016.432.033.657.033 1.385 0 3.115-.483 3.115-2.525 0-1.524-1.04-2.51-2.56-2.51-1.177 0-1.211.28-1.211.797v4.205zm-1.556-3.685c0-.865-.036-1.298-1.124-1.298h-.708c-.105 0-.12-.19-.12-.328 0-.085.05-.244.12-.244 1 0 2.024.055 3.026.055.794 0 1.574-.055 2.37-.055 1.764 0 3.493 1.177 3.493 2.994 0 1.572-1.436 2.629-2.785 2.836v.034c.674.158 1.383 1.42 1.558 1.695l1.9 2.908c.607.916 1.005 1.087 2.041 1.142l.105.101v.328c0 .157-.122.175-.19.175-.362 0-.899-.051-1.16-.051-.413 0-.83.05-1.245.05-.396 0-1.176-1.159-2.197-2.975-1.123-1.99-1.781-3.078-2.92-3.078-.14 0-.347 0-.607.033v4.242c0 .62 0 1.208.865 1.208.657 0 .95 0 .95.138 0 .328-.05.433-.31.433-.898 0-1.643-.087-2.388-.087-.293 0-2.213.087-2.454.087-.105 0-.139-.226-.139-.364 0-.153.069-.189.417-.207 1.192-.054 1.502-.225 1.502-1.419V6.626zm12.615 4.046c-1.245-.743-1.748-1.436-1.748-2.784 0-2.16 1.766-3.371 4.099-3.371.658 0 1.592.225 2.178.483l.12 2.162v.086c0 .088-.17.123-.413.123-.226 0-.258-.105-.275-.278-.123-1.16-.952-1.903-2.182-1.903-1.175 0-2.09.829-2.09 1.939 0 1.243.758 1.73 2.488 2.643 1.713.9 3.201 1.696 3.201 3.859 0 2.352-2.128 3.579-4.288 3.579-.71 0-1.887-.227-2.544-.5-.138-.072-.19-.294-.24-.673l-.209-1.628c0-.103.347-.103.449-.103.052 0 .104.033.138.153.398 1.317 1.297 2.077 2.683 2.077 1.21 0 2.368-1.054 2.368-2.23 0-1.126-.64-1.801-1.54-2.336l-2.195-1.298zm10.208 3.097c0 2.524.051 2.541 1.747 2.63l.088.122v.327c0 .103-.261.12-.419.12-.24 0-1.398-.086-2.108-.086-.831 0-1.676.087-2.576.087-.07-.036-.086-.139-.086-.313.016-.223.05-.258.551-.258 1.196 0 1.247-.26 1.247-1.575V6.556c0-.985-.294-1.228-1.748-1.228l-.05-.085-.036-.279c.018-.19.174-.208.277-.208.467 0 1.02.088 2.196.088.866 0 1.903-.088 2.596-.088l.086.124v.31l-.068.105-.47.033c-.69.051-1.227.123-1.227.918v7.523zm9.186 1.351c0 1.278.865 1.278 1.938 1.278l.104.087v.276c0 .207-.087.207-.366.207-.346 0-1.193-.086-2.402-.086-.95 0-2.437.086-2.855.086-.035-.12-.069-.207-.069-.312 0-.051.018-.155.07-.19l.174-.068h.208c1.574 0 1.643-.535 1.643-1.972V6.229l-.051-.796h-2.318c-1.316 0-1.525.83-1.852 1.938-.034.103-.104.154-.208.154-.24 0-.4-.07-.4-.174 0-.293.21-1.9.21-3.268 0-.069.244-.069.483-.069.554.743.728.743 1.473.743h6.432c1.211 0 1.556-.363 1.99-.899.119 0 .517 0 .517.156 0 .139-.345 1.557-.381 2.803 0 .19-.053.554-.136.554-.156 0-.555-.089-.555-.177l-.069-.862c-.067-.881-.484-.899-1.19-.899h-2.39v9.687zm10.65-3.65c0-.176-.017-.401-.208-.681l-3.902-5.276c-.104-.158-.26-.244-.663-.26l-.66-.038-.104-.051V4.71l.104-.051h.209c.296 0 2.16.086 2.49.086.435 0 1.134-.086 1.707-.086.382 0 .556 0 .556.105v.21c0 .172-.052.258-.104.258l-1.01.036c-.245 0-.4.103-.4.295 0 .07.102.245.28.469l2.489 3.468c.138.192.295.365.47.523.33-.315 1.865-2.423 2.613-3.518.279-.403.437-.733.437-.871 0-.244-.142-.347-.647-.366l-.872-.036c.02 0 0-.258 0-.33 0-.088.02-.192.107-.243.678.069 1.514.086 2.263.086.506 0 1.27-.086 1.497-.086l.106.069v.401l-.07.07-.644.033c-.558.036-1.254 1.219-1.586 1.672l-2.889 3.955v4.091c0 .366.016.682.052.786.138.415.591.645 1.236.645h.47l.156.07v.486l-.087.018h-.262c-.766 0-1.513-.09-2.281-.09-.782 0-1.585.09-2.367.09h-.245l-.14-.036v-.297c0-.102.035-.225.175-.24l.817-.09c.506-.052.907-.226.907-1.096V11.47zM53.046 35.517c0-2.905-1.985-5.86-5.097-5.86-3.198 0-4.737 2.506-4.737 5.424 0 2.959 1.797 6.018 5.013 6.018 3.181 0 4.821-2.608 4.821-5.582m-11.682.136c0-3.613 3.092-6.568 6.672-6.568 3.628 0 6.862 2.489 6.862 6.084 0 3.477-3.354 6.604-6.796 6.604-3.61 0-6.738-2.347-6.738-6.12m15.649-4.387c0-1.053-.171-1.28-1.19-1.28h-.295c-.309.019-.447-.035-.447-.14 0-.139 0-.433.192-.433h7.084c.587 0 1.175-.084 1.78-.084.103 0 .243.018.243.156l.07 1.95c0 .122.018.244.018.365 0 .07-.139.102-.314.102h-.258c-.036-.205-.07-.414-.12-.602l-.156-.537c-.189-.676-.691-.778-1.229-.778h-2.42c-1.28 0-1.401.396-1.401 1.66v3.042h2.56c1.485 0 1.849-.414 1.849-1.365.172-.038.346-.088.467-.088.069 0 .105.036.105.122 0 .136-.07.397-.07 1.659 0 .502.07 1.4.07 1.78 0 .156-.12.224-.312.224-.138 0-.19-.154-.26-.431-.12-.71-.466-1.332-1.935-1.332H58.57v4.53c0 .674.09 1.037.971 1.107l.898.07c.086 0 .119.104.119.222 0 .14 0 .346-.188.346-1.298 0-1.85-.085-2.663-.085-.709 0-1.987.085-2.452.085-.142 0-.142-.173-.142-.307 0-.106.018-.262.09-.262l.761-.051c.913-.07 1.049-.277 1.049-1.296v-8.35zm23.19 2.99-2.567-6.617h-.049l-2.194 6.616h4.81zm-5.115.903-1.016 3.284c-.187.603-.277 1.133-.277 1.505 0 .763 1.085.924 1.713.924.205 0 .254.138.254.44 0 .23-.026.326-.188.326-.53 0-2.22-.119-2.844-.119-.622 0-1.596.119-2.292.119-.46 0-.46-.072-.46-.373v-.255c0-.115.205-.16.762-.208 1.204-.114 1.368-.345 1.808-1.62l4.579-13.323c.46-.392.947-.927 1.523-1.111l5.81 14.644c.391.972.81 1.457 2.15 1.457.255 0 .3.279.3.532 0 .257-.158.257-.437.257-.375 0-1.853-.119-2.756-.119-.925 0-1.851.047-2.775.119-.346 0-.37-.072-.37-.396 0-.252.139-.37.464-.37.348 0 1.48-.07 1.48-.625 0-.185-.092-.555-.417-1.365l-1.48-3.723h-5.531zm24.308-5.785c.538 0 1.092.05 1.648.05.435 0 .885-.05 1.318-.05.26 0 .313.068.313.122v.276c0 .121-.052.208-.124.208-.12 0-.31-.035-.52-.035-1.007 0-1.007.504-1.007 1.632 0 .989.192 7.478.192 8.433 0 .484.244 1.042.99 1.042.694 0 .778.035.778.191 0 .208-.102.382-.153.382-.921 0-1.648-.09-2.378-.09-.729 0-1.475.09-2.22.09-.124 0-.139-.07-.139-.174v-.174c0-.173.156-.225.954-.225.348 0 .659-.416.659-1.024 0-1.873-.068-5.917-.139-8.885-.07-.016-.052-.016-.052-.016-.97 1.996-2.237 4.893-2.827 6.437l-1.635 4.286c-.013.051-.066.103-.154.103-.084 0-.156-.087-.207-.328a7.801 7.801 0 0 0-.436-1.267l-3.279-7.984c-.122-.295-.225-.503-.292-.503-.074 0-.074.347-.074.54 0 1.37-.205 6.609-.205 7.46 0 .746 0 1.18 1.528 1.18.103 0 .12.086.12.295 0 .069-.017.279-.087.279-.244 0-1.092-.09-2.03-.09-.987 0-1.96.09-2.205.09-.05 0-.104-.054-.104-.141v-.26c0-.156.14-.172.348-.172 1.423 0 1.63-.435 1.63-1.945 0-.85.293-7.236.293-7.86 0-.92-.45-1.302-2.008-1.302-.053 0-.09-.085-.09-.19v-.226c0-.087.054-.155.142-.155.658 0 1.284.086 1.976.086.433 0 .885-.086 1.32-.086.123 0 .244.278.328.503l3.75 8.97h.082l3.996-9.473zm6.276 5.934c-1.254-.747-1.758-1.442-1.758-2.792 0-2.171 1.77-3.385 4.113-3.385.66 0 1.597.224 2.189.485l.12 2.17v.086c0 .087-.174.12-.418.12-.225 0-.257-.103-.276-.275-.121-1.163-.955-1.911-2.187-1.911-1.179 0-2.098.833-2.098 1.945 0 1.249.764 1.734 2.498 2.653 1.72.904 3.212 1.7 3.212 3.87 0 2.362-2.138 3.592-4.304 3.592-.712 0-1.893-.225-2.553-.503-.137-.07-.19-.295-.244-.677l-.207-1.63c0-.104.348-.104.451-.104.057 0 .106.033.139.155.4 1.318 1.305 2.082 2.691 2.082 1.216 0 2.376-1.059 2.376-2.237 0-1.129-.64-1.805-1.543-2.343l-2.201-1.301zm12.636 4.771c0 1.286.866 1.286 1.943 1.286l.106.086v.278c0 .21-.088.21-.366.21-.346 0-1.195-.09-2.41-.09-.956 0-2.45.09-2.864.09-.037-.124-.07-.21-.07-.313 0-.054.019-.158.07-.193l.175-.068h.208c1.579 0 1.648-.54 1.648-1.979v-8.225l-.052-.798h-2.325c-1.32 0-1.53.833-1.858 1.943-.033.105-.104.156-.208.156-.246 0-.397-.07-.397-.172 0-.296.206-1.909.206-3.281 0-.068.243-.068.487-.068.555.747.727.747 1.473.747h6.454c1.215 0 1.564-.366 1.997-.904.124 0 .52 0 .52.157 0 .14-.347 1.56-.381 2.811 0 .19-.055.554-.139.554-.157 0-.554-.085-.554-.172l-.069-.87c-.072-.883-.486-.9-1.199-.9h-2.395v9.715zm7.284-8.937c0-1.126-.851-1.25-1.857-1.25-.067 0-.067-.086-.067-.154v-.192c0-.156.294-.172.9-.172.693 0 1.475.086 2.206.086.693 0 1.387-.086 2.079-.086h3.664c.136 0 .155.155.155.346v2.117c0 .07-.036.14-.123.14-.138 0-.416.015-.433-.191l-.054-.54c-.103-1.11-.866-1.301-1.836-1.301h-1.79c-.97 0-1.282.209-1.282 1.526v3.142c0 .052.104.14.14.14l2.045-.07c1.04-.035 1.339-.364 1.597-1.286.034-.103.088-.139.28-.139.12 0 .204.02.204.106 0 .365-.101 1.163-.101 1.735 0 .937.101 1.44.101 1.735 0 .104-.171.209-.276.209-.138 0-.26-.053-.295-.227-.086-.466-.086-.797-.171-1.04-.09-.26-.299-.382-.818-.4l-2.464-.05c-.242 0-.242.085-.242.206v4.132c0 1.248.92 1.283 2.116 1.283h.938c.92 0 1.562-.018 1.996-.28.384-.223.92-1.28 1.108-1.715.228 0 .52.051.52.172 0 .053-.05.19-.084.278l-.487 1.753c-.138.47-.223.47-.45.47-1.875 0-3.715-.09-6.229-.09-.572 0-2.03.09-2.914.09-.055 0-.106-.174-.106-.28 0-.138.034-.294.106-.294 1.506-.07 1.924-.226 1.924-1.822v-8.087zm12.453 3.8c.226.018.435.037.66.037 1.386 0 3.123-.487 3.123-2.535 0-1.525-1.04-2.516-2.567-2.516-1.182 0-1.216.278-1.216.798v4.217zm-1.561-3.696c0-.866-.036-1.301-1.13-1.301h-.713c-.101 0-.12-.19-.12-.329 0-.087.054-.242.12-.242 1.008 0 2.035.05 3.04.05.8 0 1.58-.05 2.376-.05 1.77 0 3.507 1.18 3.507 3 0 1.579-1.441 2.638-2.795 2.847v.034c.677.156 1.39 1.423 1.562 1.7l1.91 2.917c.604.92 1.004 1.093 2.048 1.145l.102.103v.331c0 .154-.121.174-.19.174-.366 0-.905-.054-1.164-.054-.417 0-.832.054-1.248.054-.4 0-1.18-1.164-2.204-2.985-1.128-1.997-1.789-3.09-2.935-3.09-.136 0-.346 0-.605.036v4.251c0 .624 0 1.214.87 1.214.655 0 .953 0 .953.137 0 .33-.05.437-.316.437-.902 0-1.645-.089-2.393-.089-.293 0-2.217.089-2.463.089-.104 0-.139-.226-.139-.366 0-.156.068-.19.415-.208 1.197-.052 1.512-.226 1.512-1.424v-8.38zm14.011 7.78c0 1.91 1.961 1.91 2.722 1.91 2.377 0 4.91-1.961 4.91-5.59 0-3.088-1.665-4.616-2.863-5.309-.832-.364-1.926-.45-2.671-.45-1.421 0-2.098.102-2.098 1.215v8.224zm-1.565-7.74c0-.659-.136-1.335-.78-1.335-.208 0-.761.069-1.092.069-.07 0-.07-.26-.07-.347 0-.104 0-.156.296-.224 1.164-.244 3.937-.434 5.428-.434.957 0 1.859.086 2.71.31 2.358.644 4.562 2.743 4.562 5.935 0 4.303-3.594 6.248-6.89 6.248-1.648 0-2.517-.07-3.38-.07-.87 0-1.736.05-2.604.07-.07 0-.087-.156-.087-.28 0-.12.087-.293.156-.293.556-.07 1.005-.104 1.32-.313.26-.174.43-.452.43-1.005v-8.331zm17.974 4.803-1.927-4.962h-.036l-1.643 4.962h3.606zm-3.838.676-.76 2.464c-.14.45-.208.85-.208 1.129 0 .57.815.694 1.285.694.153 0 .189.103.189.328 0 .174-.019.245-.138.245-.4 0-1.665-.09-2.135-.09-.47 0-1.197.09-1.717.09-.346 0-.346-.054-.346-.28v-.19c0-.087.156-.123.572-.156.901-.087 1.022-.26 1.352-1.215l3.435-9.994c.346-.294.712-.694 1.145-.835l4.355 10.985c.298.728.61 1.092 1.615 1.092.193 0 .225.211.225.4 0 .193-.12.193-.327.193-.277 0-1.39-.09-2.066-.09-.696 0-1.39.036-2.084.09-.259 0-.276-.054-.276-.298 0-.19.104-.275.346-.275.26 0 1.112-.053 1.112-.47 0-.138-.07-.416-.314-1.023l-1.109-2.794h-4.15zm20.919-7.39c.539 0 1.094.05 1.65.05.43 0 .885-.05 1.318-.05.26 0 .31.067.31.12v.277c0 .121-.05.208-.118.208-.123 0-.315-.035-.522-.035-1.005 0-1.005.504-1.005 1.632 0 .989.19 7.478.19 8.433 0 .484.243 1.042.99 1.042.69 0 .781.035.781.191 0 .208-.105.382-.157.382-.922 0-1.648-.09-2.378-.09-.729 0-1.474.09-2.223.09-.12 0-.137-.07-.137-.174v-.174c0-.173.156-.225.953-.225.348 0 .658-.416.658-1.024 0-1.873-.066-5.917-.135-8.885-.07-.016-.054-.016-.054-.016-.972 1.996-2.238 4.893-2.827 6.437l-1.63 4.286a.163.163 0 0 1-.157.103c-.088 0-.156-.087-.21-.328a8.21 8.21 0 0 0-.433-1.267l-3.28-7.984c-.121-.295-.224-.503-.293-.503-.07 0-.07.347-.07.54 0 1.37-.21 6.609-.21 7.46 0 .746 0 1.18 1.527 1.18.106 0 .121.086.121.295 0 .069-.015.279-.087.279-.24 0-1.092-.09-2.03-.09-.99 0-1.962.09-2.201.09-.052 0-.103-.054-.103-.141v-.26c0-.156.136-.172.342-.172 1.425 0 1.634-.435 1.634-1.945 0-.85.295-7.236.295-7.86 0-.92-.448-1.302-2.015-1.302-.049 0-.087-.085-.087-.19v-.226c0-.087.054-.155.14-.155.66 0 1.284.086 1.983.086.43 0 .88-.086 1.315-.086.122 0 .243.278.33.503l3.747 8.97h.088l3.99-9.473zM0 34h34V0H0v34zM13.01 3.122 14.432 1.7 17 4.27 19.57 1.7l1.421 1.422-2.568 2.568 2.568 2.57-1.421 1.42L17 7.113l-2.568 2.569-1.422-1.422 2.568-2.569-2.568-2.568zm2.568 12.002-2.568-2.569 1.422-1.422L17 13.702l2.569-2.569 1.421 1.422-2.568 2.569 2.568 2.568-1.421 1.422L17 16.545l-2.568 2.569-1.422-1.422 2.568-2.568zm5.41 15.735-1.421 1.422-2.57-2.569-2.568 2.569-1.422-1.422 2.569-2.568-2.569-2.568L14.43 24.3l2.569 2.569 2.568-2.569 1.422 1.422-2.569 2.569 2.569 2.568zm.994-7.315.004-3.096-1.395 1.309s-.812.835-2.652 1.308c-1.838.471-3.233.386-4.07.217-.835-.167-1.587-.39-2.061-.615-.474-.224-1.31-.643-2.061-1.815-.445-.692-.445-2.426-.445-2.426l.034-3.233-.245-5.466s.828.036 1.393.038c.695.004 1.295-.152 1.311-.062.027.17.046 7.612.046 7.612s.082 1.589.472 2.398c.684 1.42 3.734 1.538 3.734 1.538s.474.055 1.534-.027c1.057-.081 3.124-.387 3.792-1.64 0 0 .475-.528.646-3.538.18-3.153-.243-6.274-.243-6.274l2.956-.136s-.2 2.23-.205 6.411c-.004 4.183.383 6.636.383 6.636l-2.928.86z"></path></g>
                </svg>