<svg xmlns:xlink="http://www.w3.org/1999/xlink" xmlns="http://www.w3.org/2000/svg" aria-hidden="true" width="24"  height="24" ><defs><symbol id="icon-twitter" viewBox="0 0 24 24"><path d="M20.4 5.9c.9-.6 1.6-1.6 2-2.7-.9.6-1.8 1-2.9 1.2-.8-.9-2-1.5-3.3-1.5-2.5 0-4.5 2.2-4.5 4.9 0 .4 0 .8.1 1.1-3.7-.3-7-2.2-9.3-5.1-.4.7-.6 1.5-.6 2.4 0 1.7.8 3.2 2 4-.7 0-1.4-.2-2-.6v.1c0 2.4 1.6 4.3 3.6 4.8-.4.1-.8.2-1.2.2-.3 0-.6 0-.8-.1.6 1.9 2.2 3.3 4.2 3.4-1.6 1.2-3.5 2-5.6 2-.4 0-.7 0-1.1-.1 2 1.4 4.4 2.2 6.9 2.2 8.3 0 12.8-7.4 12.8-13.8v-.6c.9-.7 1.7-1.6 2.3-2.5-.8.3-1.7.6-2.6.7z"></path></symbol></defs>
                            <use xlink:href="#icon-twitter" fill="#D6D6D6"></use>
                        </svg>