<svg xmlns:xlink="http://www.w3.org/1999/xlink" xmlns="http://www.w3.org/2000/svg" aria-hidden="true" width="24"  height="24" ><defs><symbol id="icon-whatsapp" viewBox="0 0 24 24" preserveAspectRatio="xMinYMin"><path d="M17.133 15.033c0 .945-1.169 2.1-2.533 2.1-1.344 0-3.935-1.617-5.026-2.707-1.09-1.09-2.707-3.681-2.707-5.026 0-1.364 1.155-2.533 2.1-2.533h.866c.14 0 .268.079.33.204 0 .001.521 1.062.863 1.728.377.733-.372 1.613-.768 2.005.139.369.491 1.16 1.135 1.803.643.643 1.434.995 1.802 1.135.393-.395 1.275-1.143 2.006-.768.665.342 1.727.863 1.728.864.125.061.204.189.204.328v.867ZM12 1C5.935 1 1 5.935 1 12c0 2.134.61 4.196 1.765 5.977L1.025 22.5a.368.368 0 0 0 .465.477l4.665-1.666A10.95 10.95 0 0 0 12 23c6.065 0 11-4.935 11-11S18.065 1 12 1Z"></path></symbol></defs>
                            <use xlink:href="#icon-whatsapp" fill="#D6D6D6"></use>
                        </svg>